<svg width="198" height="24" viewBox="0 0 198 24" fill="none" xmlns="http://www.w3.org/2000/svg">
<path d="M31.3067 0V5.27923H25.1299V0H31.3067ZM31.3067 6.67479V23.3755H25.1299V6.67479H31.3067Z" fill="currentColor"/>
<path d="M17.1681 0V18.3901L7.38275 0H0L12.4457 23.3847H17.1681H19.8285H23.345V0H17.1681Z" fill="currentColor"/>
<path d="M53.0598 0V23.3847H41.5254C36.8214 23.3847 33.084 18.6288 33.084 14.2952C33.084 9.3649 36.5268 5.28842 41.4057 5.28842H45.4653V10.5677H43.4677C41.3228 10.5677 39.5554 12.2662 39.5554 14.3503C39.5554 16.4345 41.2952 18.1055 43.4401 18.1055H46.8829V0H53.0598Z" fill="currentColor"/>
<path d="M74.9499 23.3848H64.5109C59.2178 23.3848 54.5967 19.951 54.5967 14.2586C54.5967 9.62203 58.9785 5.27929 64.5385 5.27929H74.9499V10.5585L70.835 16.5723H63.8389L68.1931 10.5585H65.0172C62.6606 10.5585 61.0773 12.0826 61.0773 14.1943C61.0773 16.4529 62.8447 18.0963 65.0172 18.0963H74.9591V23.3756L74.9499 23.3848Z" fill="currentColor"/>
<path d="M86.4947 24C80.907 24 75.8809 20.153 75.8809 14.3505C75.8809 8.54791 81.0543 4.67341 86.5315 4.67341C92.0088 4.67341 97.1178 8.57545 97.1178 14.3505C97.1178 20.1255 92.0548 24 86.5039 24H86.4947ZM82.3431 14.3413C82.3431 16.9212 84.1381 18.7116 86.5223 18.7116C88.9065 18.7116 90.6372 16.9212 90.6372 14.3413C90.6372 11.7614 88.9341 9.94346 86.5499 9.94346C84.1657 9.94346 82.3431 11.8164 82.3431 14.3413Z" fill="currentColor"/>
<path d="M126.308 8.86912H122.543C121.512 8.86912 120.684 8.37333 120.684 7.3542C120.684 6.33508 121.485 5.93111 122.488 5.91274H122.93H132.77V0H122.258C118.3 0 114.203 2.80947 114.203 7.3083C114.203 11.8071 118.3 14.4513 122.258 14.4513H126.023C127.072 14.4513 127.919 14.9288 127.919 15.9754C127.919 17.0221 127.063 17.4812 126.023 17.4812H114.332V23.3847H126.317C130.294 23.3847 134.409 20.8507 134.409 15.9754C134.409 11.4399 130.294 8.85993 126.317 8.85993L126.308 8.86912Z" fill="#FF6200"/>
<path d="M106.075 12.9089C106.075 14.1392 105.422 17.472 101.786 17.4812H97.7998V23.3939L102.559 23.4398H103.737C109.178 23.4306 112.418 19.9326 112.418 13.726V0H106.075V12.9089Z" fill="#FF6200"/>
<rect x="144" width="54" height="23.44" rx="11.72" fill="#FF6200"/>
<path d="M181.097 6C183.58 6 186 6.15748 186 10.1417V13.8583C186 17.8425 183.58 18 181.097 18C178.614 18 176.194 17.8425 176.194 13.8583V10.1417C176.194 6.15748 178.614 6 181.097 6ZM181.097 8.59843C179.542 8.59843 179.18 8.62992 179.18 10.6457V13.3543C179.18 15.3701 179.542 15.4016 181.097 15.4016C182.653 15.4016 183.015 15.3701 183.015 13.3543V10.6457C183.015 8.62992 182.653 8.59843 181.097 8.59843Z" fill="#EFE6D2"/>
<path d="M173.842 6.09449V17.9055H170.699V8.88189L167.65 11.6693L165.874 9.65354L170.164 6.09449H173.842Z" fill="#EFE6D2"/>
<path d="M164.549 9.63779L162.522 17.9055H158.279L156 9.63779H158.829L160.322 16.0945H160.4L161.752 9.63779H164.549Z" fill="#EFE6D2"/>
</svg>
