<svg xmlns="http://www.w3.org/2000/svg" width="18" height="18" fill="none" viewBox="0 0 18 18">
  <path fill="currentColor" d="M14.5 2A3.5 3.5 0 0 1 18 5.5v7l-.005.18a3.5 3.5 0 0 1-3.315 3.315L14.5 16h-7c0-.693-.096-1.363-.271-2H14.5a1.5 1.5 0 0 0 1.5-1.5v-7A1.5 1.5 0 0 0 14.5 4h-11A1.5 1.5 0 0 0 2 5.5v3.271A7.5 7.5 0 0 0 0 8.5v-3A3.5 3.5 0 0 1 3.5 2z"/>
  <mask id="a" width="8" height="8" x="0" y="8" maskUnits="userSpaceOnUse" style="mask-type:alpha">
    <rect width="8" height="8" y="8" fill="#fff" rx=".5"/>
  </mask>
  <g mask="url(#a)">
    <circle cy="16" r="3.25" stroke="currentColor" stroke-width="1.5"/>
    <circle cy="16" r="5.75" stroke="currentColor" stroke-width="1.5"/>
    <circle cy="16" r="1.5" fill="currentColor"/>
  </g>
</svg>
