<svg width="18" height="18" viewBox="0 0 18 18" fill="none" xmlns="http://www.w3.org/2000/svg">
<path d="M0.75 13.25C2.13088 13.25 3.25 14.3348 3.25 15.75V16H0.5V13.25H0.75Z" fill="black"/>
<path d="M0.75 10.25C3.79057 10.25 6.25 12.7094 6.25 15.75V16H4.25V15.75C4.25 13.7894 2.68324 12.25 0.75 12.25H0.5V10.25H0.75Z" fill="black"/>
<path d="M0.75 7.25C5.44042 7.25 9.25 11.0518 9.25 15.75V16H7.25V15.75C7.25 12.1386 4.33997 9.25 0.75 9.25H0.5V7.25H0.75Z" fill="black"/>
<path d="M17.5 14.25C17.5 15.2131 16.7131 16 15.75 16H10.25V14H15.5V4H2.5V6.25H0.5V3.75C0.5 2.78693 1.28693 2 2.25 2H15.75C16.7131 2 17.5 2.78693 17.5 3.75V14.25Z" fill="black"/>
</svg>
