<svg width="18" height="18" viewBox="0 0 18 18" fill="none" xmlns="http://www.w3.org/2000/svg">
<path d="M13 2.00037C15.2091 2.00037 17 3.79129 17 6.00037V8.03552C16.8367 8.01216 16.6698 8.00037 16.5 8.00037H15V6.27283C15 5.01768 13.9607 4.00044 12.6787 4.00037H4.32129C3.03926 4.00044 2 5.01768 2 6.27283V11.7269C2 12.9821 3.03926 14.0003 4.32129 14.0004H6V15.5004C6.00002 15.6702 6.01275 15.837 6.03613 16.0004H4C1.79096 16.0004 0.000162864 14.2093 0 12.0004V6.00037C0 3.79129 1.79086 2.00037 4 2.00037H13Z" fill="black"/>
<rect x="8" y="10" width="10" height="7" rx="2" fill="black"/>
<path fill-rule="evenodd" clip-rule="evenodd" d="M4.87127 10.4535C5.09692 10.548 5.35447 10.4956 5.52717 10.3229L8.32344 7.52718C8.49614 7.35448 8.54729 7.09693 8.45402 6.87128C8.36075 6.64562 8.14232 6.5 7.89802 6.5H5.10174C4.77018 6.5 4.5 6.77018 4.5 7.10175V9.89747C4.5 10.1418 4.64562 10.3602 4.87127 10.4535Z" fill="black"/>
</svg>
