<svg width="18" height="18" viewBox="0 0 18 18" fill="none" xmlns="http://www.w3.org/2000/svg">
<path fill-rule="evenodd" clip-rule="evenodd" d="M13 2.00037C15.2091 2.00037 17 3.79117 17 6.00025V8.03544C16.8367 8.01208 16.6698 7.99999 16.5 7.99999H15V6.27272C15 5.01753 13.9607 3.99999 12.6786 3.99999H4.32143C3.03934 3.99999 2 5.01753 2 6.27272V11.7273C2 12.9825 3.03934 14 4.32143 14H6V15.5C6 15.6697 6.01208 15.8367 6.03544 15.9999H4C1.79086 15.9999 0 14.2091 0 12.0001V6.00025C0 3.79117 1.79086 2.00037 4 2.00037H13Z" fill="black"/>
<rect x="8" y="10" width="10" height="7" rx="2" fill="black"/>
</svg>
