<svg  aria-label="Fastly Logo" role="img" viewBox="0 0 125 47" fill="none" xmlns="http://www.w3.org/2000/svg">
  <path
    d="M107.692 16.3721H104.487L109.215 27.7305L113.942 16.3721H110.737V11.6719H124.198V16.3721H120.993L112.74 36.1904C110.336 41.752 106.49 47 100.561 47C99.1182 47 97.1952 46.8436 95.833 46.5303L96.3936 40.7334C97.2749 40.8901 98.3971 40.9687 98.958 40.9688C101.682 40.9688 104.807 39.3231 105.769 36.4248L97.4355 16.3721H94.2305V11.6719H107.692V16.3721ZM11.1377 0C12.58 0 14.3429 0.234734 15.7852 0.469727L14.9043 5.63965C13.9428 5.48298 13.4613 5.4834 12.8203 5.4834C10.4166 5.48341 9.85547 5.71863 9.85547 7.99023V11.6719H14.7432V16.3721H9.85547V31.6465H13.1406V36.5029H0.0800781V31.6465H3.28516V16.3721H0V12.1416L3.28516 11.5938V7.36328C3.28516 2.19335 4.40706 2.7125e-05 11.1377 0ZM31.4893 8.38086H30.6875V10.5742C32.2901 10.8876 33.7325 11.4364 35.0947 12.2197V10.3398H41.585V30.1582H43.1875V36.5029H36.2969L35.0947 34.623C33.0916 35.798 30.768 36.5029 28.2041 36.5029C20.8323 36.5029 14.8223 30.6276 14.8223 23.4209C14.8225 16.9978 19.5499 11.6709 25.7998 10.5742H25.7197V8.38086H24.918V6.73633H31.4893V8.38086ZM56.25 10.3398C60.4167 10.3398 63.542 10.9667 66.5869 11.75V16.4502H61.5391V15.5098C59.5362 15.1965 57.6131 15.1182 56.5713 15.1182C53.5264 15.1182 53.2051 16.6852 53.2051 17.5469C53.2052 18.7217 53.6067 19.4269 56.8916 20.1318C61.6991 21.1501 66.5066 22.2466 66.5068 28.1211C66.5068 33.6044 63.622 36.5029 57.4521 36.5029C53.3657 36.5029 49.3593 35.6417 46.3945 34.8584V30.0801H51.3623V30.9414C53.4456 31.3331 55.6897 31.333 56.8916 31.333C60.0965 31.3329 60.6572 29.6097 60.6572 28.748C60.6572 27.4949 59.6957 26.8686 56.7314 26.3203C51.0423 25.3803 46.4746 23.4212 46.4746 17.7812C46.4747 12.3765 50.1605 10.3399 56.25 10.3398ZM76.1211 11.6719H81.249V16.3721H76.1211V27.1035C76.1211 29.61 75.9613 30.4719 78.6055 30.3936C79.2464 30.3153 80.1275 30.3931 81.1689 30.1582L82.1309 35.7979C80.6085 36.1112 78.6054 36.5029 77.1631 36.5029C71.0733 36.5029 69.6309 33.9181 69.6309 28.3564V0H76.1211V11.6719ZM91.0254 31.6465H94.2305V36.5029H84.5352V0H91.0254V31.6465ZM28.5244 17.3896H27.7227V16.6064C24.1972 16.8416 21.4729 19.583 21.2324 22.9512H22.0342V23.7344H21.2324C21.3927 27.1026 24.1971 29.845 27.7227 30.0801V29.2959H28.5244V30.0801C31.9698 29.9233 34.6941 27.2596 35.0146 23.9697V23.7344H34.2129V22.9512H35.0146V22.7168C34.6941 19.4269 31.9698 16.7632 28.5244 16.6064V17.3896ZM31.5693 20.5225L29.3252 22.9512C29.4053 23.1078 29.4062 23.1861 29.4062 23.3428C29.4062 24.0477 28.845 24.5956 28.2041 24.5957C27.5631 24.5957 27.002 24.0478 27.002 23.3428C27.002 22.6378 27.5631 22.0898 28.2041 22.0898C28.3642 22.0898 28.4443 22.0897 28.6045 22.168L31.0889 20.0527L31.5693 20.5225Z"
    fill="currentColor"
  />
</svg>
