<svg aria-label="Netlify Logo" role="img" viewBox="0 0 181 48" fill="none" xmlns="http://www.w3.org/2000/svg">
  <path
    fill-rule="evenodd"
    clip-rule="evenodd"
    d="M170.116 30.7159L174.918 14.9141H180.459L171.225 41.7412C169.747 45.6612 167.408 47.6211 163.96 47.6211C163.221 47.6211 162.359 47.4989 161.374 47.2539V43.211L162.359 43.334C163.714 43.334 164.699 43.0887 165.314 42.5987C165.93 42.1087 166.546 41.2509 166.915 40.1485L167.653 38.1885L159.527 14.9141H165.191L170.116 30.7159ZM25.9805 45.5391C25.2418 46.274 24.8723 46.6421 24.3799 46.7647C23.8875 46.8872 23.3947 46.8871 22.9023 46.7647C22.2867 46.6422 21.7936 46.1523 20.8086 45.0498L9.72754 34.0245L12.5596 29.6143H12.6826C13.2982 29.8592 14.0368 29.7372 14.6523 29.4922H14.7754L25.9805 45.5391ZM28.5664 30.8399H28.6895C28.8127 31.4521 29.3046 32.0646 29.9199 32.3096V32.4317C29.7968 33.4116 28.4427 41.3738 28.0732 43.5791L27.0889 44.5596L16.0068 28.7569V28.6348L16.1299 28.5118C16.1307 28.511 16.1404 28.5016 16.2529 28.3897H16.376L28.5664 30.8399ZM38.7861 32.9219L29.9199 41.7422L31.3984 32.4317H31.5215C31.8906 32.3091 32.1367 32.0643 32.3828 31.8194L32.5059 31.6973L38.7861 32.9219ZM115.57 14.9141H119.634V18.834H115.57V31.8184C115.57 32.6757 115.693 33.2884 116.062 33.7784C116.432 34.1458 117.047 34.3916 117.909 34.3916C118.525 34.3916 119.141 34.269 119.757 34.1465V38.1885C118.526 38.556 117.417 38.6787 116.309 38.6787C112.246 38.6786 110.275 36.4734 110.275 32.0635V18.711H106.459V14.9141H110.275V9.27836H115.57V14.9141ZM94.8848 14.4239C98.0859 14.4239 100.549 15.4039 102.272 17.4864C103.996 19.5688 104.857 22.3867 104.857 26.0616V28.1436H89.7129C89.836 30.1034 90.5747 31.5734 91.6826 32.6758C92.7907 33.7782 94.2685 34.3916 95.9922 34.3916C98.4547 34.3916 100.302 33.4111 101.902 31.4512L104.734 34.1465C103.749 35.4938 102.518 36.5962 101.041 37.3311C99.1941 38.1886 97.4701 38.5557 95.5 38.5557C92.1755 38.5557 89.4662 37.4536 87.373 35.3711C85.28 33.2887 84.2949 30.4709 84.2949 27.0411V26.4288C84.2949 24.1013 84.7875 22.0182 85.6494 20.1807C86.5113 18.3433 87.8662 16.8735 89.4668 15.8936C91.0675 14.9136 92.9147 14.4239 94.8848 14.4239ZM72.4746 14.4239C77.3998 14.4239 79.8623 17.2414 79.8623 22.7539V38.1885H74.5684V23.1211C74.5684 21.6512 74.1986 20.5485 73.583 19.8135C72.9674 19.0786 71.8592 18.711 70.3818 18.711C68.2888 18.711 66.6882 19.6911 65.7031 21.5284V38.1885H60.4082V14.9141H65.5801L65.7031 17.6084C67.4268 15.5262 69.6429 14.4239 72.4746 14.4239ZM129.237 38.1885H123.943V5.11332H129.237V38.1885ZM140.565 38.1885H135.271V14.9141H140.565V38.1885ZM156.449 4.74613C157.311 4.74615 158.296 4.86834 159.404 5.11332L159.281 9.15629C158.666 9.03379 157.926 9.03324 157.311 9.03324C154.848 9.03337 153.494 10.2588 153.494 12.8311V14.9141H158.296V18.834H153.494V38.1885H148.199V18.711H144.629V14.9141H148.199V12.8311C148.199 10.2587 148.939 8.29912 150.416 6.82914C151.894 5.48164 153.864 4.74613 156.449 4.74613ZM11.2051 28.5118C11.2119 28.5119 11.3281 28.5159 11.3281 28.6348C11.3284 28.757 11.4512 28.7575 11.4512 28.8799L8.74219 33.167L6.15625 30.5948L11.2051 28.5118ZM47.0352 24.5918C46.7889 25.0818 46.2964 25.5717 45.5576 26.3067L40.1406 31.6973L33.1221 30.2266C33.1221 30.2266 32.9991 30.227 32.999 30.1045C32.999 29.4921 32.6292 29.0023 32.1367 28.6348V28.5118L33.4912 20.5498C33.4912 20.5498 33.4912 20.4268 33.6143 20.4268C34.2299 20.3043 34.7224 20.0594 35.0918 19.5694H35.2148L47.0352 24.5918ZM10.3428 27.042C10.3428 27.042 10.4656 27.042 10.4658 27.1641L10.3428 27.2871L5.04785 29.4922L1.84668 26.3067C1.35425 25.8168 0.861448 25.327 0.615234 25.0821L10.3428 27.042ZM31.8906 20.0596C31.8919 20.0609 31.9038 20.0724 32.0137 20.1817L30.6592 28.1446C30.6591 28.1488 30.657 28.2666 30.5361 28.2666C29.7974 28.2666 29.1819 28.7571 28.8125 29.2471V29.3692C28.8125 29.3692 28.8122 29.3692 28.6895 29.3692L16.6221 26.919C16.7446 26.7969 16.501 26.1894 16.499 26.1846L31.6445 19.8145C31.7675 19.9368 31.7676 19.9372 31.8906 20.0596ZM11.5742 24.837C11.5765 24.8392 11.6961 24.959 11.5742 24.959C11.4511 25.204 11.2052 25.3273 11.082 25.5723C11.082 25.5723 11.0818 25.5722 10.959 25.6944L0 23.3672C0 23.1224 0.000121234 22.9997 0.123047 22.7549C0.246172 22.1424 0.861709 21.6518 1.84668 20.6719L5.91016 16.6299C7.75704 19.3248 9.72735 22.1421 11.5742 24.837ZM31.0283 17.7315C31.0283 17.7315 31.1514 17.732 31.1514 17.8545V18.5899C31.1512 18.5978 31.1472 18.712 31.0283 18.712C29.9186 19.2026 16.1299 25.0821 16.1299 25.0821H16.0068V24.959L21.5479 16.5069L21.6709 16.3848H22.04C22.9019 16.3848 23.6413 16.0173 24.1338 15.2823C24.1338 14.9148 24.1337 14.9141 24.2568 14.9141L31.0283 17.7315ZM94.8848 18.711C93.4073 18.711 92.2984 19.2008 91.4365 20.1807C90.5747 21.1606 89.9592 22.6309 89.7129 24.3457H99.6865V23.9786C99.5634 22.2636 99.0708 20.9161 98.332 20.0586C97.4702 19.0787 96.3621 18.711 94.8848 18.711ZM12.5596 10.0147C13.0527 10.2599 15.0219 10.9948 16.6221 11.7295C17.853 12.2194 19.0843 12.7091 19.4541 12.9541C19.4541 12.9541 19.5771 12.9547 19.5771 13.0772V13.1993C19.454 14.0568 19.7008 14.7918 20.1934 15.4043V15.5274L14.5293 24.2246H14.4062C14.16 24.2246 13.9132 24.1016 13.79 24.1016C13.5441 24.1016 13.4209 24.1022 13.1748 24.2246H13.0518C13.0518 24.2246 13.0518 24.2241 13.0518 24.1016L7.01855 15.5274L12.5596 10.0147ZM45.4346 20.6719C46.4196 21.6519 46.9119 22.1424 47.1582 22.7549C47.1582 22.8768 47.1587 22.8771 47.2812 22.9991L35.8311 18.2217C35.8311 18.2217 35.7072 18.222 35.707 18.0996C35.707 17.9771 35.7079 17.9766 35.8311 17.9766L40.6328 15.8946L45.4346 20.6719ZM39.5244 14.792L34.8457 16.752C34.5994 16.6295 34.4757 16.3843 34.2295 16.2618C34.1099 16.2615 34.1065 16.1455 34.1064 16.1397L35.0918 10.3819L39.5244 14.792ZM33.7373 9.03422L32.6289 16.0166C32.3827 16.1391 32.1368 16.2623 32.0137 16.3848L24.8721 13.3223C24.8697 13.3223 24.749 13.3206 24.749 13.1993C24.749 12.8318 24.6261 12.4642 24.3799 12.0967C24.3799 12.0967 24.2568 11.9746 24.3799 11.9746L29.0586 4.37992L33.7373 9.03422ZM22.9023 0.0918361C23.3948 -0.0305861 23.8875 -0.030638 24.3799 0.0918361C24.9954 0.214414 25.4879 0.704488 26.4727 1.80668L28.0732 3.39945L23.0254 11.2393H22.9023C22.0404 10.9943 21.1781 11.117 20.5625 11.7295H20.4395C19.5775 11.362 14.4058 9.15715 13.667 8.91215L20.8086 1.80668C21.7936 0.826688 22.2867 0.336835 22.9023 0.0918361ZM137.979 5.97074C138.965 5.97074 139.704 6.21664 140.196 6.82914C140.689 7.31914 140.935 8.0543 140.935 8.7891C140.934 9.52396 140.689 10.2592 140.196 10.7491C139.704 11.239 138.965 11.4834 137.979 11.4834C136.995 11.4834 136.256 11.2388 135.764 10.7491C135.271 10.2591 135.024 9.64638 135.024 8.7891C135.024 7.93163 135.271 7.31913 135.764 6.82914C136.256 6.33916 136.995 5.97078 137.979 5.97074Z"
    fill="currentColor"
  />
</svg>
