<svg aria-label="Adobe Logo" role="img" preserveAspectRatio="true" viewBox="0 0 100 24" fill="none" xmlns="http://www.w3.org/2000/svg">
  <path d="M9.71039 0.691421H16.5092L26.1112 23.6466H18.9252L12.8543 8.40461L8.84312 18.4072H13.6131L15.518 23.6466H0L9.71039 0.691421ZM34.118 5.45454C34.8149 5.45454 35.5738 5.516 36.3327 5.70038V0.0153638H42.3416V22.6325C40.9633 23.2471 37.9898 24 35.0163 24C29.6268 24 24.9961 20.9577 24.9961 14.8886C24.9961 8.81946 29.4564 5.46991 34.118 5.46991V5.45454ZM34.8769 19.0832C35.4344 19.0832 35.8835 18.9757 36.3327 18.8374V10.5096C35.8835 10.3406 35.4344 10.2638 34.8459 10.2638C32.879 10.2638 31.0516 11.7081 31.0516 14.7503C31.0516 17.7926 32.91 19.0679 34.8769 19.0679V19.0832ZM53.0432 5.45454C58.0455 5.45454 62.3045 8.8041 62.3045 14.7042C62.3045 20.6044 58.061 23.9539 53.0432 23.9539C48.0254 23.9539 43.751 20.6044 43.751 14.7042C43.751 8.8041 47.9635 5.45454 53.0432 5.45454ZM53.0432 18.991C54.7623 18.991 56.3574 17.6236 56.3574 14.7042C56.3574 11.7849 54.7623 10.4174 53.0432 10.4174C51.3241 10.4174 49.76 11.7849 49.76 14.7042C49.76 17.6236 51.2467 18.991 53.0432 18.991ZM63.7448 0.0153638H69.7847V5.70038C70.5126 5.5621 71.2715 5.45454 72.0304 5.45454C76.7229 5.45454 81.0748 8.4968 81.0748 14.4584C81.0748 20.758 76.4442 23.9539 70.9617 23.9539C68.6077 23.9539 65.6032 23.4776 63.7448 22.6172V0V0.0153638ZM71.1011 19.0525C73.1764 19.0525 75.0658 17.5775 75.0658 14.5352C75.0658 11.6927 73.2074 10.356 71.1941 10.356C70.6365 10.356 70.1874 10.4174 69.7847 10.6018V18.822C70.1255 18.9603 70.5746 19.0679 71.1011 19.0679V19.0525ZM91.3272 5.45454C95.8495 5.45454 100 8.32778 100 14.1204C100 14.904 99.969 15.6569 99.8606 16.4097H88.6015C89.221 18.4379 91.0175 19.3905 93.2631 19.3905C95.0906 19.3905 96.7787 18.9449 98.6836 18.1306V22.694C96.9181 23.5851 94.8118 23.9539 92.6436 23.9539C86.9134 23.9539 82.4532 20.5275 82.4532 14.7042C82.4532 8.88092 86.4953 5.45454 91.3272 5.45454ZM94.3627 12.6761C94.053 10.7247 92.7366 9.9411 91.3892 9.9411C90.0418 9.9411 88.9422 10.7708 88.4931 12.6761H94.3627Z" fill="#EFE6D2"/>
</svg>
