<svg aria-label="Amazon Logo" role="img" preserveAspectRatio="true" viewBox="0 0 100 30" fill="none" xmlns="http://www.w3.org/2000/svg">
  <path d="M14.2871 19.9736C13.7439 19.4853 14.2307 18.8199 14.8828 19.2002C22.3478 23.5173 31.5778 26.1152 41.1123 26.1152C47.5426 26.1152 54.6169 24.792 61.1211 22.0479C62.1035 21.6334 62.9246 22.6879 61.9639 23.3965C56.1597 27.6487 47.7471 29.918 40.5039 29.918C30.3476 29.918 21.2044 26.1836 14.2871 19.9736ZM57.459 19.6484C60.7762 17.3279 66.2196 17.9976 66.8545 18.7754C67.4892 19.5575 66.6892 24.9806 63.5723 27.5693C63.094 27.9669 62.6375 27.7557 62.8506 27.2285C63.5505 25.4913 65.1193 21.5979 64.376 20.6514C63.6369 19.7093 59.4721 20.2064 57.6025 20.4268C57.033 20.4959 56.946 20.0028 57.459 19.6484ZM77.8018 0.150391C82.3886 0.150391 84.8711 4.06563 84.8711 9.04395C84.8711 13.8537 82.1278 17.6699 77.8018 17.6699C73.2977 17.6697 70.8457 13.7538 70.8457 8.875C70.8458 3.96614 73.3283 0.150578 77.8018 0.150391ZM7.43066 0C8.93493 6.77655e-05 10.9001 0.398148 12.0869 1.53027C13.5907 2.92596 13.4473 4.78803 13.4473 6.81445V11.6035C13.4474 13.0422 14.0472 13.6734 14.6123 14.4512C14.8122 14.7276 14.8563 15.0601 14.6045 15.2676C13.9741 15.7905 12.8518 16.7631 12.2344 17.3076L12.2256 17.2988C12.0212 17.4802 11.7255 17.493 11.4951 17.3721C10.4694 16.5253 10.2867 16.1321 9.72168 15.3242C8.02611 17.0441 6.82589 17.5576 4.62598 17.5576C2.02604 17.5576 0 15.9631 0 12.7695C0.000138381 10.2763 1.36126 8.57772 3.2959 7.74805C4.97408 7.01356 7.31728 6.88375 9.1084 6.68066V6.2832C9.10841 5.55292 9.16476 4.68849 8.73438 4.05762C8.3561 3.49174 7.63464 3.25883 7 3.25879C5.82179 3.25879 4.76924 3.85898 4.5127 5.10352C4.46054 5.37997 4.25659 5.65186 3.97852 5.66504L0.978516 5.3457C0.726424 5.28954 0.448248 5.08653 0.517578 4.70215C1.20887 1.08941 4.49159 0 7.43066 0ZM47.9561 0C49.4603 6.77655e-05 51.4255 0.398148 52.6123 1.53027C54.1161 2.92596 53.9727 4.78803 53.9727 6.81445V11.6035C53.9728 13.0422 54.5726 13.6734 55.1377 14.4512C55.3376 14.7276 55.3817 15.0601 55.1299 15.2676C54.4995 15.7905 53.3771 16.7631 52.7598 17.3076L52.751 17.2988C52.5466 17.4802 52.2509 17.493 52.0205 17.3721C50.9948 16.5253 50.8121 16.1321 50.2471 15.3242C48.5515 17.0441 47.3513 17.5576 45.1514 17.5576C42.5514 17.5576 40.5254 15.9631 40.5254 12.7695C40.5255 10.2763 41.8866 8.57772 43.8213 7.74805C45.4995 7.01356 47.8427 6.88375 49.6338 6.68066V6.2832C49.6338 5.55292 49.6902 4.68849 49.2598 4.05762C48.8815 3.49174 48.16 3.25883 47.5254 3.25879C46.3472 3.25879 45.2946 3.85898 45.0381 5.10352C44.9859 5.37997 44.782 5.65186 44.5039 5.66504L41.5039 5.3457C41.2518 5.28954 40.9736 5.08653 41.043 4.70215C41.7343 1.08941 45.017 0 47.9561 0ZM33.4717 0.150391C34.7673 0.150391 36.1846 0.682277 37.0498 1.875C38.028 3.20167 37.8281 5.12872 37.8281 6.81836L37.8242 16.7705C37.8242 17.0859 37.5589 17.3407 37.2285 17.3408H34.1416C33.8329 17.3192 33.585 17.073 33.585 16.7705V8.41309C33.585 7.74758 33.6459 6.08797 33.498 5.45703C33.2676 4.39836 32.5763 4.10059 31.6807 4.10059C30.9329 4.10059 30.1504 4.59743 29.833 5.39258C29.595 5.98902 29.5522 6.88677 29.5459 7.67578V16.7705C29.5459 17.086 29.2806 17.3408 28.9502 17.3408H25.8633C25.5503 17.3192 25.3066 17.073 25.3066 16.7705L25.3027 8.41309C25.3027 6.65432 25.5938 4.06562 23.3984 4.06543C21.4546 4.06543 21.2774 5.9975 21.2637 7.70215V16.7705C21.2637 17.0859 20.9983 17.3407 20.668 17.3408H17.5762C17.2808 17.319 17.0462 17.0991 17.0244 16.8184V1.04883C17.0247 0.733563 17.2898 0.483398 17.6201 0.483398H20.5029C20.8028 0.496513 21.0417 0.725634 21.0635 1.01074V3.07129H21.1201C21.8723 1.07937 23.2853 0.150393 25.1895 0.150391C27.1241 0.150391 28.3326 1.0794 29.2021 3.07129C29.95 1.07936 31.6501 0.150465 33.4717 0.150391ZM95.4629 0.150391C96.8498 0.150391 98.2017 0.647586 99.0713 2.00879C99.88 3.27066 99.8809 5.3925 99.8809 6.91797V16.8438C99.8461 17.1202 99.5893 17.3406 99.2852 17.3408H96.1846C95.9021 17.3191 95.6671 17.1116 95.6367 16.8438V8.2793C95.6367 6.55504 95.8369 4.03125 93.7021 4.03125C92.95 4.0313 92.2585 4.53243 91.915 5.29297C91.4803 6.25661 91.4238 7.21627 91.4238 8.2793V16.7705C91.4195 17.086 91.1498 17.3408 90.8193 17.3408H87.7412C87.4327 17.3191 87.1846 17.0729 87.1846 16.7705L87.1807 0.99707C87.2069 0.707688 87.4634 0.483398 87.7764 0.483398H90.6416C90.911 0.496414 91.1324 0.677633 91.1934 0.923828V3.33496H91.25C92.1152 1.17879 93.3284 0.150456 95.4629 0.150391ZM68.4668 0.441406C68.7928 0.441406 69.0536 0.67471 69.0537 1.01172V2.94336C69.0494 3.26747 68.776 3.6915 68.2891 4.36133L63.0234 11.833C64.9799 11.7855 67.0455 12.0745 68.8193 13.0684C69.2193 13.2931 69.328 13.6222 69.3584 13.9463V16.3525C69.3584 16.681 68.993 17.066 68.6104 16.8672C65.4844 15.2381 61.3323 15.0611 57.876 16.8848C57.5239 17.0747 57.1545 16.6946 57.1543 16.3662V14.0801C57.1543 13.7128 57.1588 13.0858 57.5283 12.5283L63.6279 3.83398H58.3193C57.9933 3.83391 57.7324 3.6046 57.7324 3.26758V1.01172C57.7325 0.67039 57.9936 0.441406 58.3066 0.441406H68.4668ZM9.1084 9.14453C6.87372 9.14455 4.51275 9.6196 4.5127 12.2383C4.5127 13.565 5.20467 14.4639 6.3916 14.4639C7.26091 14.4637 8.03905 13.9324 8.53027 13.0684C9.13895 12.0053 9.1084 11.0066 9.1084 9.80957V9.14453ZM49.6338 9.14453C47.3991 9.14455 45.0381 9.6196 45.0381 12.2383C45.0381 13.565 45.7301 14.4639 46.917 14.4639C47.7863 14.4637 48.5644 13.9324 49.0557 13.0684C49.6643 12.0053 49.6338 11.0066 49.6338 9.80957V9.14453ZM77.8281 3.37012C75.55 3.37016 75.4062 6.45587 75.4062 8.37891C75.4062 10.3064 75.3762 14.4195 77.8018 14.4199C80.1974 14.4199 80.3105 11.1006 80.3105 9.07812C80.3105 7.74722 80.2539 6.15724 79.8496 4.89551C79.5018 3.79786 78.8107 3.37012 77.8281 3.37012Z" fill="#EFE6D2"/>
</svg>
