<svg aria-label="Awge Logo" role="img" viewBox="0 0 128 36" fill="none" xmlns="http://www.w3.org/2000/svg">
  <path fill-rule="evenodd" clip-rule="evenodd" d="M91.266 0.36761C92.3464 0.906089 93.4271 0.810135 93.9896 4.16448L82.4691 13.2192C80.2878 14.934 78.4868 16.9197 76.597 18.9535C74.4123 21.3064 72.7036 23.9815 71.3832 26.9242C71.0093 27.7577 70.2071 30.591 70.6976 31.5034C73.6883 32.779 80.3484 27.2647 82.0912 25.1723L84.1839 22.6616L85.5042 21.4125L81.7171 22.8569C80.9284 23.1587 80.1393 23.7798 79.306 23.893C78.5277 23.999 78.1405 23.0965 77.6878 22.685C76.8784 21.9476 76.1134 21.2891 75.599 20.267C76.4837 19.5367 77.475 19.2352 78.514 18.8168L89.4857 14.3881L97.3949 11.2739C98.2214 10.9481 99.0927 10.6295 99.9671 10.434C100.118 10.3997 100.396 10.0879 100.55 10.0326C102.872 9.24036 103.644 9.66896 103.535 8.37249C103.518 8.18047 103.99 7.83796 104.179 7.92327L105.619 8.57464L122.141 2.0932L124.051 1.33831C124.051 1.33831 125.564 0.652559 126.548 0.607844C127.533 0.563257 127.999 1.33831 127.999 1.33831C127.759 1.55779 127.282 1.58873 126.97 1.75335C125.9 2.31913 124.864 2.70967 123.705 3.07659C122.618 3.423 121.579 3.90711 120.519 4.34613L118.039 5.37542L113.275 7.41253L113.183 7.82757C113.155 7.95094 112.716 7.95385 112.592 8.01214C112.229 8.18706 111.717 8.43448 111.313 8.59222L106.871 10.3139C106.614 10.4134 106.261 10.7157 106.028 10.9008L103.709 17.976L107.517 16.5112C109.328 15.8149 110.957 14.8724 112.768 14.183L115.518 13.1401C116.348 12.8245 117.165 12.3477 118.067 12.3032C118.547 12.2791 118.876 12.2383 119.264 11.9262C119.549 11.6932 119.84 11.8642 120.063 11.8471L121.301 11.7651C121.476 11.7548 121.716 11.7918 121.877 11.8364L122.477 11.8432C121.668 13.1499 120.961 12.8861 119.641 13.517C119.96 13.7228 121.835 12.5711 122.161 13.1059C120.865 13.8603 119.624 14.3752 118.314 14.8657C119.01 14.8553 119.562 14.725 120.289 14.5981L119.085 15.3285C118.489 15.6885 116.24 16.737 116.18 16.8852C116.177 16.8955 116.252 16.9746 116.352 17.0912L115.018 17.6606L115.563 17.1157C113.965 17.637 112.572 18.2167 111.083 18.9301L111.728 18.9467L109.942 19.9584C108.824 20.5895 107.616 20.9635 106.45 21.4643C105.969 21.6701 105.524 21.9686 104.975 22.1469C103.685 22.5722 102.299 23.0043 101.14 23.728L99.0453 28.1938L107.207 25.0073L109.245 24.1606C110.432 23.6667 111.598 23.0213 112.873 22.7846C113.748 22.6234 114.623 22.6542 115.37 22.0678C115.696 22.7298 116.472 22.0751 116.4 22.3803L116.334 22.6508C116.321 22.716 116.18 22.6412 116.033 22.6069L115.827 23.1L114.143 24.0502L114.63 24.3832C113.145 25.4602 112.441 25.5254 110.843 26.352C111.755 26.5269 112.281 25.5973 113.231 25.81C110.809 27.0241 108.515 28.2521 106.059 29.3119C104.852 29.8333 102.639 30.1556 101.545 31.3149C101.655 31.8703 100.924 31.7198 100.609 31.9565C99.3401 32.8994 99.3601 32.4839 98.3382 33.0668C98.3382 33.0668 95.4441 34.9706 94.264 34.5766C93.0842 34.1822 92.5931 33.2524 92.5931 33.2524C92.6136 33.0398 92.3397 32.7759 92.2025 32.6147C92.0104 32.3883 91.5952 31.2733 92.1302 31.016L93.9515 30.1489L94.9398 28.4985C95.5468 27.4835 96.222 26.5575 96.5033 25.3676C96.0609 25.5013 95.6421 25.4843 95.2992 25.1791C94.8636 24.7882 92.7585 22.768 93.221 22.1127C94.1711 21.6017 95.2034 21.1452 96.2289 20.8022L99.3773 19.7524C99.9568 18.607 100.324 17.4242 100.77 16.2514L101.611 14.0561L100.239 14.5737L101.106 14.5844L92.2406 18.2367L92.6625 18.2094C92.7411 18.2035 92.8228 18.435 92.7513 18.4662L88.6283 20.103L88.388 21.6459L88.8031 20.8432C89.2524 22.1602 87.507 24.8424 87.3011 25.4633L87.0306 26.2836C86.914 26.6367 86.8108 26.8186 86.3822 27.0414L86.7865 27.2299C86.0013 27.182 86.1589 27.7992 85.9017 28.101C85.1643 28.9584 84.3757 29.7751 83.5423 30.5434C82.9524 31.0887 82.1975 31.476 81.6488 32.059C80.6509 33.122 81.2442 32.1621 80.2601 33.0707C80.2601 33.0707 77.4679 35.0219 74.5697 35.0219C71.6715 35.0219 69.555 33.0707 69.555 33.0707C69.2908 32.4979 68.0393 31.5649 67.4974 30.8207L67.0345 29.1235C66.743 28.0466 66.9075 26.7087 67.2367 25.6284C67.7443 23.9649 68.6536 22.6199 69.5111 21.1176C70.221 19.8727 71.1948 18.4221 72.1859 17.4789C72.3094 17.3623 72.752 17.3451 72.8275 17.2114L73.6986 15.644C74.5114 14.183 75.8904 13.264 77.0736 12.1391C78.0819 11.1753 79.0454 10.2621 80.1498 9.41156L80.2533 8.91156C81.1313 8.24618 81.9615 7.55995 82.8978 7.00433C83.3436 6.74031 83.7691 6.53081 84.1703 6.19476L86.3988 4.32855L88.2406 2.66253L89.7054 1.34808L91.2523 0.377375L91.266 0.36761ZM74.7757 0.0180005C75.7983 -0.17969 77.3801 1.31578 77.3998 1.33441L77.7396 1.57464C77.8251 1.63306 77.6398 1.94147 77.5677 2.03753L73.2084 7.67327L64.7269 19.2895C62.6313 22.1602 56.8315 30.6049 54.3929 32.3129C52.7912 33.4345 51.5494 32.453 50.0677 31.6332C49.6699 31.4138 48.929 31.2289 48.682 30.7592C48.315 29.4559 48.0995 28.1038 48.096 26.7182C48.0961 26.3618 48.1677 25.9335 48.1917 25.601L48.2806 24.2797C48.3424 23.3984 48.5109 22.5818 48.7201 21.7416C48.8057 21.3989 48.823 21.0082 48.8812 20.6586C48.9464 20.2779 49.0941 19.9207 49.0941 19.5434L38.8519 33.0737C38.8519 33.0737 37.3299 34.977 36.349 34.9262C35.3681 34.8748 31.5707 33.0737 31.5707 33.0737C30.8648 32.1677 32.2393 28.3762 32.7093 27.2953L32.8128 28.0151L33.097 26.7084C33.3783 26.1562 33.5569 25.6484 33.7318 25.0688L34.1976 23.519L34.4105 22.8432L33.8822 23.3159C34.2011 22.1534 34.4827 20.8745 35.1205 19.8285C35.3571 19.441 35.6929 19.0873 35.9125 18.645L36.5511 17.3588L37.1136 15.1606L37.7757 13.5004C37.8992 13.1917 38.0844 12.831 38.2113 12.5532L37.388 12.7114L37.6927 12.3686C37.0377 12.1218 36.7191 12.5777 36.431 12.9721C35.9303 13.6615 34.8734 13.4868 34.1566 13.6274C32.5003 13.9498 32.6713 14.3507 31.7796 14.4467C31.2967 14.4983 31.2414 15.0016 31.0326 15.1254C30.5627 15.4067 30.0998 15.3387 29.8529 15.9526L25.1644 27.6381L23.4906 31.6371L22.1595 34.9711C22.1595 34.9711 19.9028 33.4996 19.6556 32.7621C19.4087 32.0247 20.4955 30.4261 20.9105 29.0473L21.1166 28.3617C20.7055 29.7357 24.1311 20.9295 23.8705 21.5434L24.8548 19.2211L25.4828 17.6811L25.7816 16.8754L24.4847 16.7826C23.936 16.7415 23.2262 17.0813 22.7084 17.27L22.4955 17.7465C21.4734 18.1203 20.4684 18.4904 19.3949 18.6996C19.1035 18.7579 18.9765 18.8503 18.7162 18.9428L14.4007 20.4594C13.5298 20.7648 12.9845 21.6907 12.3089 22.3285C9.86697 24.6368 6.01542 28.104 3.04527 29.476C2.55827 29.7024 1.98917 29.7158 1.54331 29.3969L0.178078 28.4194C0.0923361 28.3576 -0.0207328 28.1042 0.00327329 28.0151C0.0273619 27.9259 0.143157 27.7677 0.235695 27.7162L2.57554 26.4409C4.28002 25.5114 5.59724 24.0711 7.11655 22.6616L2.75327 23.5561C2.26638 23.2714 1.75514 22.8502 1.31968 22.4867C0.969923 22.4147 0.794906 22.2699 0.609719 21.9819L0.328469 21.5463C0.0417968 21.0969 3.77243 20.223 4.18394 20.0961L8.32359 18.8305L11.2728 17.8598C12.1131 17.582 12.8131 17.3346 13.4613 16.6899L14.6205 15.5375L15.2621 14.8481L19.0042 11.0991L22.7084 7.55316C23.3188 6.97011 23.8671 6.36578 24.5599 5.90277C24.92 5.66268 25.2664 5.37108 25.5716 5.07269L26.224 4.43206C26.7487 3.9176 27.222 3.35163 27.8119 2.88519C28.4018 2.41873 28.9817 1.92429 29.4242 1.34808C29.4503 1.33304 30.6111 0.66899 31.8216 0.621516C33.0334 0.574191 33.8319 1.33262 33.848 1.34808L33.8617 1.34124L34.7777 2.22991C34.5753 3.31366 34.2599 4.33915 33.8792 5.39202L31.6595 11.5385L35.4359 10.6362C35.9058 10.523 36.3487 10.3583 36.8529 10.3618C38.2554 10.3719 38.4063 9.32639 38.9584 10.2211C39.2738 9.60385 39.6377 8.95588 39.888 8.24261L40.2142 7.31292C40.3239 6.99746 40.4166 6.57226 40.4818 6.26702C40.5332 6.02694 40.859 5.64545 40.931 5.36077L41.5755 2.86761C41.61 2.73744 41.8495 2.58375 41.9593 2.59027C42.4807 2.62113 41.6989 3.7324 41.8841 4.14398L42.4125 2.92913L43.5511 3.0014C43.9968 3.02883 44.518 3.46418 44.9671 3.79339C44.24 5.78262 43.9796 7.70704 43.3246 9.68597L37.7923 26.4789C38.3205 26.1874 38.65 25.7202 38.9964 25.2846L39.2396 25.4809L41.2875 23.309L42.2855 22.2534L42.6048 21.725L43.9623 19.808L45.7533 17.2455C46.9194 15.5718 48.8574 13.925 49.9584 11.8569C50.1093 11.5685 50.3664 10.8319 50.8119 10.9448C52.0912 11.2672 53.6077 11.6069 54.6195 12.5844C54.0742 13.8877 53.6314 15.047 53.4222 16.4291L51.9955 25.8852C51.8377 26.921 51.9437 27.8471 51.9505 28.9653L52.4652 28.4272L52.1664 28.4028L53.6654 26.3959C53.8369 26.1662 54.1358 25.8752 54.3587 25.6352L54.6332 25.7719L55.6341 24.9867C56.4058 24.3831 56.7797 22.8567 57.4896 21.9203L57.2699 21.7524C57.534 21.6701 57.8401 21.5529 58.0013 21.3471C58.4127 20.8124 58.8855 20.3564 59.2386 19.808C60.1372 18.419 61.023 17.1356 62.2337 16.0141C62.5902 15.6848 62.6959 15.1325 62.9222 14.7553C63.3578 14.0248 63.8861 13.27 64.4486 12.6801C64.7367 12.3817 64.9534 12.2553 65.1214 11.8403C65.2723 11.4665 66.3074 10.2047 66.6781 9.80316C67.8785 8.51012 68.6405 6.93513 69.6351 5.48089C70.6297 4.02685 71.881 2.7096 72.975 1.33441C72.975 1.33441 73.747 0.217141 74.7757 0.0180005ZM29.6195 5.67327C26.1005 8.73952 22.8726 11.8953 19.5697 15.1948C22.3339 14.4197 24.8173 13.624 27.3998 12.7426L29.1253 8.24554L29.1214 8.24261L28.721 8.5512C29.0537 7.57028 29.3588 6.75709 29.6195 5.67327Z" fill="#EFE6D2"/>
</svg>
