<svg aria-label="Brightcove Logo" role="img" viewBox="0 0 189 39" fill="none" xmlns="http://www.w3.org/2000/svg">
  <g clip-path="url(#clip0_503_2096)">
    <path d="M188.314 0H0V39H188.314V0Z" fill="#1E1D1D" />
    <path
      d="M44.8487 5.71275H50.6987V33.1775H44.8487V5.71275ZM41.3665 12.936V14.0071C41.3665 17.4951 40.113 19.0606 36.8258 19.3902V19.8846C40.113 20.2142 41.3665 21.7797 41.3665 25.2677V33.1775H35.5165V25.0754C35.5165 22.8782 34.848 22.2191 33.093 22.2191H31.143V33.1775H25.293V5.71275H34.263C39.4723 5.71275 41.3665 7.85501 41.3665 12.936ZM35.5165 13.2381C35.5165 11.0409 34.848 10.3818 33.093 10.3818H31.143V17.5501H32.8144C34.7644 17.5501 35.5165 16.8635 35.5165 14.6113V13.2381ZM22.0894 24.5811V25.9543C22.0894 31.0353 20.1951 33.1775 14.9858 33.1775H5.79297V5.71275H14.8465C20.0558 5.71275 21.9501 7.85501 21.9501 12.936V13.3205C21.9501 16.8085 20.6965 18.374 17.4094 18.7036V19.198C20.8358 19.5275 22.0894 21.093 22.0894 24.5811ZM11.643 16.8909H13.4537C15.4037 16.8909 16.1558 16.2043 16.1558 13.9522V13.2381C16.1558 11.0409 15.4873 10.3818 13.7323 10.3818H11.643V16.8909ZM16.2394 24.4163C16.2394 22.2191 15.5708 21.5599 13.8158 21.5599H11.643V28.5085H13.8158C15.5708 28.5085 16.2394 27.8494 16.2394 25.6522V24.4163ZM62.2873 5.30078C56.9944 5.30078 54.2923 8.18458 54.2923 13.5402V26.174C54.2923 31.1726 56.3815 33.5895 60.978 33.5895C64.8223 33.5895 66.3823 31.9966 66.5494 28.124H66.9673L67.7194 33.1775H70.2823V17.9895H62.343V22.1642H64.7108V26.229C64.7108 28.1515 63.9587 28.9754 62.4265 28.9754C60.8944 28.9754 60.1423 28.1515 60.1423 26.229V12.6613C60.1423 10.7388 60.8944 9.91487 62.3151 9.91487C63.7358 9.91487 64.488 10.7388 64.488 12.6613V15.5726H70.2823V13.2656C70.2823 8.0198 67.6358 5.30078 62.2873 5.30078ZM152.182 28.4261H151.653L149.536 5.71275H143.491L146.75 33.1775H156.444L159.592 5.71275H154.188L152.182 28.4261ZM141.569 13.5402V25.3501C141.569 30.7057 138.783 33.5895 133.49 33.5895C128.197 33.5895 125.412 30.7057 125.412 25.3501V13.5402C125.412 8.18458 128.197 5.30078 133.49 5.30078C138.783 5.30078 141.569 8.18458 141.569 13.5402ZM135.719 12.6613C135.719 10.7388 134.911 9.91487 133.49 9.91487C132.069 9.91487 131.262 10.7388 131.262 12.6613V26.229C131.262 28.1515 132.069 28.9754 133.49 28.9754C134.911 28.9754 135.719 28.1515 135.719 26.229V12.6613ZM175.276 10.4642V5.71275H162.044V33.1775H175.276V28.4261H167.894V21.6149H174.774V17.0008H167.894V10.4642H175.276ZM91.788 10.4642H95.883V33.1775H101.733V10.4642H105.828V5.71275H91.788V10.4642ZM114.965 5.30078C109.839 5.30078 107.082 8.18458 107.082 13.5402V25.3501C107.082 30.7057 109.839 33.5895 114.965 33.5895C120.174 33.5895 122.849 30.8705 122.849 25.6247V22.274H117.054V26.229C117.054 28.1515 116.302 28.9754 114.993 28.9754C113.684 28.9754 112.932 28.1515 112.932 26.229V12.6613C112.932 10.7388 113.684 9.91487 114.993 9.91487C116.302 9.91487 117.054 10.7388 117.054 12.6613V16.3416H122.849V13.2656C122.849 8.0198 120.174 5.30078 114.965 5.30078ZM83.988 17.0282H79.893V5.71275H74.043V33.1775H79.893V21.6423H83.988V33.1775H89.838V5.71275H83.988V17.0282Z"
      fill="#EFE6D2"
    />
    <path
      d="M180.958 7.36105V7.27866C180.958 6.83922 180.624 6.53711 180.011 6.53711H178.98V8.89908H179.482V8.1026H180.039L180.457 8.89908H181.014L180.513 7.96528C180.791 7.88288 180.958 7.66317 180.958 7.36105ZM179.482 6.97655H180.039C180.345 6.97655 180.485 7.08641 180.485 7.30612V7.33359C180.485 7.52584 180.345 7.66317 180.039 7.66317H179.482V6.97655Z"
      fill="#EFE6D2"
    />
    <path
      d="M179.929 5.30078C178.536 5.30078 177.449 6.34444 177.449 7.74515C177.449 9.14585 178.508 10.1895 179.929 10.1895C181.321 10.1895 182.408 9.14585 182.408 7.74515C182.408 6.34444 181.321 5.30078 179.929 5.30078ZM179.929 9.83247C178.703 9.83247 177.811 8.9536 177.811 7.74515C177.811 6.5367 178.703 5.65782 179.929 5.65782C181.154 5.65782 182.046 6.5367 182.046 7.74515C182.046 8.9536 181.126 9.83247 179.929 9.83247Z"
      fill="#EFE6D2"
    />
  </g>
  <defs>
    <clipPath id="clip0_503_2096">
      <rect width="188.314" height="39" fill="white" />
    </clipPath>
  </defs>
</svg>
