<svg aria-label="Browser Stack logo" role="img" viewBox="0 0 206 37" fill="none" xmlns="http://www.w3.org/2000/svg">
  <path
    d="M17.7393 0.5C27.3003 0.5002 34.9775 8.24954 34.9775 17.9219C34.9775 27.5942 27.3003 35.3436 17.7393 35.3438C8.178 35.3438 0.5 27.5943 0.5 17.9219C0.5 8.24942 8.178 0.5 17.7393 0.5Z"
    stroke="currentColor"
  />
  <path
    d="M15.3359 0.5C23.6195 0.500217 30.2852 7.53657 30.2852 16.1875C30.2852 24.8396 23.6191 31.8717 15.4541 31.874C7.16037 31.7608 0.5 24.8313 0.5 16.1875C0.5 7.53396 7.16903 0.5 15.3359 0.5Z"
    stroke="currentColor"
  />
  <path
    d="M18.3105 0.5C25.5617 0.500145 31.4287 6.725 31.4287 14.3379C31.4285 22.0635 25.5642 28.1747 18.3105 28.1748C11.0594 28.1748 5.19161 21.9507 5.19141 14.3379C5.19141 6.72771 11.171 0.5 18.3105 0.5Z"
    stroke="currentColor"
  />
  <path
    d="M18.3115 2.92773C24.8797 2.92794 30.2851 8.57811 30.2852 15.4932C30.2852 22.5269 24.877 28.1746 18.3115 28.1748C11.7517 28.1748 6.45117 22.5332 6.45117 15.4932C6.45127 8.57183 11.749 2.92773 18.3115 2.92773Z"
    stroke="currentColor"
  />
  <path
    d="M15.335 5.24023C20.3183 5.24031 24.3339 9.28959 24.334 14.3369C24.334 19.3843 20.3184 23.4335 15.335 23.4336C10.3515 23.4336 6.33594 19.3844 6.33594 14.3369C6.33604 9.28955 10.3515 5.24023 15.335 5.24023Z"
    stroke="currentColor"
  />
  <path
    d="M18.9979 6.51172C22.5736 6.51181 25.5936 9.71592 25.5936 13.7588C25.5935 17.8016 22.5735 21.0058 18.9979 21.0059C15.4222 21.0059 12.4023 17.8016 12.4022 13.7588C12.4022 9.71587 15.4222 6.51172 18.9979 6.51172Z"
    stroke="currentColor"
  />
  <path
    d="M17.7402 8.32422C21.0591 8.32425 23.6914 11.2151 23.6914 14.915C23.6913 18.6149 21.059 21.5058 17.7402 21.5059C14.4214 21.5059 11.7892 18.6149 11.7891 14.915C11.7891 11.215 14.4213 8.32422 17.7402 8.32422ZM20.4863 10.8691C19.6852 10.6379 18.54 11.2166 17.9678 12.1416C17.396 13.0664 17.625 14.1065 18.4258 14.3379C19.2268 14.5691 20.3711 13.9912 20.9434 13.0664C21.5155 12.1415 21.4017 11.1005 20.4863 10.8691Z"
    fill="currentColor"
  />
  <path
    d="M111.29 14.8477C113.464 14.8477 115.182 15.5418 116.44 16.4668C116.555 16.5824 116.555 16.6979 116.44 16.8135L115.067 18.4316C114.953 18.5473 114.838 18.5473 114.724 18.4316C113.922 17.8536 112.549 17.3916 111.176 17.3916C109.803 17.3917 109.116 17.97 109.116 18.7793C109.116 19.4728 109.575 19.9348 111.405 20.166L112.893 20.2822C115.754 20.5135 117.127 21.9008 117.127 24.0977C117.127 26.6413 115.182 28.4911 111.405 28.4912C108.659 28.26 106.713 27.2193 105.568 26.1787C105.454 26.0631 105.454 25.9476 105.568 25.832L107.171 24.2129C107.285 24.0978 107.399 24.0977 107.514 24.2129C108.544 25.0223 110.146 25.7168 111.52 25.7168C113.236 25.7168 114.037 25.0222 114.037 24.2129C114.037 23.4038 113.579 22.9418 111.748 22.8262L110.261 22.71C107.514 22.4787 106.026 21.0914 106.026 18.8945C106.026 16.3509 107.971 14.8478 111.29 14.8477ZM150.201 9.5293C152.604 9.52934 154.893 10.2228 156.381 11.3789C156.495 11.4945 156.495 11.6109 156.381 11.7266L155.008 13.6914C154.893 13.807 154.779 13.8076 154.664 13.8076C153.062 12.8827 151.689 12.42 150.087 12.4199C148.142 12.4199 147.112 13.4604 147.111 14.8477C147.111 16.1195 148.027 16.9295 150.659 17.2764L151.688 17.3916C155.351 17.8541 157.411 19.5891 157.411 22.7109C157.411 25.9482 154.893 28.3759 150.201 28.376C147.34 28.2604 144.593 27.1039 143.105 25.832C142.991 25.7165 142.991 25.6009 143.105 25.4854L144.822 23.5195C144.936 23.4043 145.051 23.4044 145.165 23.5195C146.424 24.4445 148.255 25.4853 150.43 25.4854C152.719 25.4854 154.092 24.4449 154.092 22.8262C154.092 21.5543 153.291 20.6291 150.544 20.2822L149.515 20.167C145.853 19.7045 143.678 17.97 143.678 14.9639C143.678 11.7264 146.196 9.5293 150.201 9.5293ZM78.2158 14.6172C80.9623 14.6172 83.022 15.889 83.8232 18.2012C84.1666 19.1262 84.2812 19.9363 84.2812 21.4395C84.2812 22.8267 84.1665 23.7518 83.8232 24.6768C83.022 26.8734 80.9623 28.2607 78.2158 28.2607C75.4693 28.2607 73.4096 26.8735 72.6084 24.6768C72.2651 23.7518 72.1504 22.9423 72.1504 21.4395C72.1504 20.052 72.2651 19.1262 72.6084 18.2012C73.4096 16.0046 75.4694 14.6172 78.2158 14.6172ZM124.909 14.7324C127.656 14.7324 129.715 16.1198 130.517 18.3164C130.86 19.2414 130.975 20.1668 130.975 22.248C130.975 22.3636 130.861 22.4794 130.632 22.4795H122.277C122.163 22.4795 122.163 22.4793 122.163 22.5947C122.163 22.9416 122.277 23.2889 122.392 23.6357C122.849 24.9075 123.879 25.6015 125.481 25.6016C126.969 25.6016 127.999 25.0228 128.686 24.3291C128.8 24.2135 128.915 24.2136 129.144 24.3291L130.86 25.7168C130.975 25.8324 130.975 25.9479 130.86 26.0635C129.716 27.3353 127.771 28.2607 125.253 28.2607C122.163 28.2607 120.103 26.8727 119.302 24.6758C119.073 23.8665 118.844 22.8262 118.844 21.5547C118.844 20.1672 118.958 19.2414 119.302 18.3164C120.103 16.1198 122.163 14.7325 124.909 14.7324ZM172.289 14.8477C176.409 14.8478 178.011 16.2357 178.011 19.3574V27.7979C178.011 27.9133 177.897 28.0291 177.782 28.0293H175.265V27.9131C175.15 27.9131 175.035 27.7973 175.035 27.6816V26.7568C174.349 27.6818 173.09 28.2597 171.145 28.2598C168.627 28.2598 166.567 26.9883 166.566 24.3291C166.566 21.5541 168.626 20.2823 172.06 20.2822H174.807C174.921 20.2822 174.921 20.2816 174.921 20.166V19.4727C174.921 17.9695 174.234 17.2754 171.945 17.2754C170.458 17.2754 169.428 17.623 168.855 18.2012C168.741 18.3166 168.512 18.3164 168.512 18.2012L167.482 16.4668C167.368 16.3512 167.482 16.2348 167.482 16.1191C168.627 15.4255 170.115 14.8477 172.289 14.8477ZM186.022 14.6172C188.082 14.6172 189.685 15.4268 190.715 16.583C190.829 16.6986 190.829 16.8141 190.715 16.9297L188.884 18.4326C188.769 18.5482 188.654 18.5482 188.54 18.4326C187.853 17.739 187.167 17.2764 186.022 17.2764C184.764 17.2764 183.848 17.8547 183.505 19.0107C183.276 19.7045 183.276 20.3988 183.276 21.4395C183.276 22.4799 183.276 23.1735 183.505 23.8672C183.848 24.9078 184.878 25.4863 186.022 25.4863C187.167 25.4863 187.853 25.1392 188.54 24.3301C188.654 24.2145 188.769 24.2145 188.884 24.3301L190.715 25.833C190.829 25.9486 190.829 26.0641 190.715 26.1797C189.685 27.3359 188.082 28.1455 186.022 28.1455C183.276 28.2611 181.216 26.9891 180.415 24.6768C180.186 23.8675 179.957 22.8268 179.957 21.4395C179.957 20.052 180.072 19.0105 180.415 18.2012C181.216 15.889 183.276 14.6172 186.022 14.6172ZM162.331 11.1484C162.445 11.1485 162.56 11.2643 162.56 11.3799V14.9639C162.56 15.0793 162.56 15.0801 162.674 15.0801H164.506C164.62 15.0804 164.734 15.1952 164.734 15.3105V17.0449C164.734 17.1604 164.62 17.276 164.506 17.2764H162.674C162.56 17.2764 162.56 17.2771 162.56 17.3926V24.0986C162.56 25.0234 162.903 25.2548 163.818 25.2549H164.506C164.62 25.2552 164.734 25.3709 164.734 25.4863V27.6826C164.734 27.7981 164.62 27.9137 164.506 27.9141H163.246L162.994 28.1416C160.437 28.0646 159.47 26.7941 159.47 24.3301V17.623C159.47 17.5078 159.47 17.5078 159.355 17.5078H158.439C158.325 17.5076 158.211 17.3919 158.211 17.2764V15.4268C158.211 15.3113 158.325 15.1956 158.439 15.1953H159.355C159.47 15.1953 159.47 15.1953 159.47 15.0801V11.3799C159.47 11.2644 159.584 11.1488 159.698 11.1484H162.331ZM195.865 9.76172C195.98 9.76186 196.094 9.87761 196.094 9.99316V20.5146L200.786 15.3115C200.901 15.0804 201.13 15.0801 201.358 15.0801H204.22C204.334 15.0803 204.448 15.196 204.334 15.3115L199.985 20.0527L205.021 27.6836C205.135 27.7992 205.021 27.915 204.906 27.915H201.816C201.588 27.915 201.473 27.7992 201.358 27.6836L197.925 22.249L196.094 24.2148V27.5684C196.093 27.6838 195.979 27.7987 195.865 27.7988H193.232C193.118 27.7986 193.004 27.6837 193.004 27.5684V9.99316C193.004 9.87766 193.118 9.76197 193.232 9.76172H195.865ZM88.0576 15.0801C88.2865 15.0801 88.4014 15.1959 88.4014 15.3115L91.0332 23.8672L93.665 15.3115C93.665 15.1959 93.8943 15.0801 94.0088 15.0801H96.0684C96.1828 15.0801 96.4121 15.1959 96.4121 15.3115L99.1592 23.8672L101.677 15.3115C101.677 15.0804 101.791 15.0801 102.02 15.0801H104.767C104.881 15.0802 104.995 15.1959 104.995 15.3115L100.646 27.6836C100.646 27.7991 100.531 27.9141 100.303 27.9141H98.0146C97.9003 27.9141 97.7853 27.7992 97.6709 27.6836L95.0391 19.4736L92.4062 27.6836C92.406 27.799 92.2919 27.9139 92.0635 27.9141H89.7744C89.66 27.9141 89.5451 27.7992 89.4307 27.6836L85.082 15.3115C85.082 15.196 85.082 15.0802 85.3105 15.0801H88.0576ZM69.1748 14.7324C70.2048 14.7324 71.3495 15.0797 72.0361 15.7734C72.1503 15.889 72.1505 16.0046 72.0361 16.1201L70.5479 17.9697C70.4334 18.0853 70.3195 18.0853 70.2051 17.9697C69.6329 17.6229 68.9456 17.3916 68.1445 17.3916C66.3138 17.3918 65.5128 18.548 65.5127 20.6289V27.5664C65.5127 27.6819 65.3985 27.7976 65.2842 27.7979H62.7656L62.7236 27.9082C62.625 27.8846 62.5372 27.7838 62.5371 27.6826V15.3105C62.5371 15.195 62.6513 15.0794 62.7656 15.0791H65.3984C65.5128 15.0792 65.627 15.195 65.627 15.3105V16.3516C66.3136 15.311 67.4582 14.7324 69.1748 14.7324ZM139.673 14.7324C140.703 14.7324 141.848 15.0797 142.534 15.7734C142.648 15.889 142.649 16.0046 142.534 16.1201L141.161 17.9697C141.047 18.0854 140.932 18.0854 140.817 17.9697C140.245 17.6229 139.559 17.3917 138.758 17.3916C136.927 17.3916 136.125 18.5479 136.125 20.6289V27.5664C136.125 27.682 136.011 27.7977 135.896 27.7979H133.264L133.222 27.9082C133.123 27.8846 133.035 27.7838 133.035 27.6826V15.3105C133.035 15.195 133.149 15.0793 133.264 15.0791H135.896C136.011 15.0792 136.125 15.195 136.125 15.3105V16.3516C136.812 15.311 137.956 14.7324 139.673 14.7324ZM54.0674 9.75977C58.1874 9.75977 60.0186 11.7256 60.0186 14.6162C60.0185 16.6971 58.9891 17.8535 57.7305 18.4316C58.8749 18.8943 60.3623 20.2819 60.3623 22.4785C60.3623 26.0628 57.959 27.7968 53.7246 27.7969H46.8574C46.7432 27.7966 46.6292 27.6818 46.6289 27.5664V9.99121C46.6289 9.87571 46.7431 9.76002 46.8574 9.75977H54.0674ZM172.518 22.4785C170.458 22.4785 169.542 23.0569 169.542 24.2129C169.542 25.2535 170.343 25.832 171.945 25.832C173.891 25.832 174.921 25.0223 174.921 23.6348V22.5947C174.921 22.4792 174.921 22.4785 174.807 22.4785H172.518ZM78.3301 17.2764C77.0714 17.2765 76.156 17.8547 75.6982 19.0107C75.4694 19.7045 75.4697 20.2832 75.4697 21.4395C75.4697 22.4799 75.4694 23.1735 75.6982 23.8672C76.0416 24.9077 76.9569 25.6015 78.3301 25.6016C79.4745 25.6016 80.3909 24.9078 80.8486 23.8672C81.0774 23.1736 81.0771 22.5954 81.0771 21.4395C81.0771 20.3988 81.0775 19.7045 80.8486 19.0107C80.5053 17.9701 79.589 17.2764 78.3301 17.2764ZM50.0625 20.0508C49.9481 20.0508 49.9482 20.0504 49.9482 20.166V24.9062C49.9482 25.1375 49.9481 25.1377 50.0625 25.1377H54.1826C56.0135 25.1376 57.043 24.0968 57.043 22.5938C57.0428 21.0909 56.0133 20.0509 54.1826 20.0508H50.0625ZM124.909 17.2764C123.651 17.2764 122.621 17.8542 122.277 18.8945C122.163 19.2414 122.163 19.5887 122.163 19.9355C122.163 20.0512 122.163 20.0508 122.277 20.0508H127.656C127.77 20.0508 127.771 20.0511 127.771 19.9355C127.656 19.5887 127.656 19.2414 127.542 18.8945C127.199 17.854 126.168 17.2764 124.909 17.2764ZM50.0625 12.4189C49.9481 12.4189 49.9482 12.4195 49.9482 12.5352V17.0439C49.9482 17.1596 49.9481 17.1602 50.0625 17.1602H53.9531V17.2754C55.6696 17.2754 56.7 16.3506 56.7002 14.8477C56.7002 13.4602 55.6698 12.4189 53.9531 12.4189H50.0625Z"
    fill="currentColor"
  />
</svg>
