<svg aria-label="CNN Logo" role="img" preserveAspectRatio="true" viewBox="0 0 80 38" fill="none" xmlns="http://www.w3.org/2000/svg">
  <path d="M33.5048 0.000737453C29.9564 -0.0527816 26.8071 2.81173 26.8071 6.95726V25.6248C26.8107 26.2967 26.3081 26.8927 25.5764 26.8927H19.7324C7.08673 26.9078 8.21672 10.7504 18.9806 10.7352C23.7657 10.7284 25.4382 10.7352 25.4382 10.7352V6.20822H18.751C14.5607 6.21498 11.3883 7.80835 9.25448 10.1839C7.12056 12.5594 6.02809 15.7231 6.02979 18.867C6.03145 21.8938 7.06533 25.0351 9.22495 27.4159C11.3846 29.7966 14.6682 31.4247 19.2065 31.4247H30.2368C30.8745 31.4247 31.4151 30.8855 31.4151 30.2565V7.44981C31.4081 6.25717 32.0276 5.29835 33.0237 4.98098H33.0239C33.9901 4.67399 35.0514 5.07381 35.691 5.9823L35.6939 5.98636L35.6964 5.99057C37.2465 8.52683 41.1198 14.7486 44.6184 20.3572C46.3677 23.1614 48.0234 25.8126 49.2485 27.7736C49.8611 28.7541 50.3661 29.5621 50.7212 30.1304C51.0736 30.6943 51.2694 31.0075 51.2912 31.043C51.5492 31.4071 51.874 31.5439 52.1445 31.4588H52.1446L52.145 31.4586C52.2984 31.411 52.4191 31.303 52.5095 31.1253C52.5998 30.9477 52.6534 30.7009 52.6534 30.4045V7.45308C52.6496 6.26423 53.2653 5.30341 54.2648 4.98785C55.2251 4.68039 56.2896 5.08025 56.9229 5.98964L56.9254 5.99322L56.9276 5.99697C58.4812 8.53162 62.3562 14.7534 65.8556 20.362C69.353 25.9673 72.48 30.9681 72.529 31.0459C72.5292 31.0461 72.5292 31.0462 72.5293 31.0464C72.7822 31.4082 73.1275 31.5526 73.4159 31.4619C73.572 31.4126 73.6968 31.3024 73.7898 31.1246C73.8828 30.9467 73.9384 30.7017 73.9384 30.408V0.14209V0.140529H69.364V17.8147C69.364 17.8147 66.5314 13.0183 61.7024 4.74009C56.978 -3.36972 48.062 -0.0177988 48.0584 6.96053V17.8114C48.0584 17.8114 45.2937 13.0116 40.4679 4.73338C38.5473 1.4401 35.9326 0.0373557 33.5048 0.000737453ZM19.5774 0.140529C-6.70865 0.137262 -6.45928 37.5312 19.9315 37.5483H30.2434C34.6812 37.5515 37.5308 34.9234 37.5273 30.0796V20.6079C37.5273 20.6079 43.3108 30.1825 45.5803 33.9302C49.4415 40.3026 58.7855 39.0496 58.762 31.0898V20.6146C58.762 20.6146 64.5452 30.1857 66.8179 33.9385C70.6792 40.309 80.0237 39.0547 80 31.0929V0.140529H75.4326V30.4077V30.408C75.4358 31.8382 74.6329 32.6376 73.8678 32.8791L73.8673 32.8793C72.9341 33.1764 71.9189 32.7788 71.2876 31.8759L71.2854 31.8728L71.2834 31.8697C71.1528 31.6615 58.7751 11.8698 55.6804 6.81325C55.4237 6.4492 55.0476 6.29962 54.7139 6.40495C54.3674 6.51578 54.1471 6.88196 54.1471 7.45246V30.4008V30.4011C54.1508 31.8372 53.3614 32.6343 52.5996 32.8791L52.5992 32.8793L52.5987 32.8795C51.6791 33.168 50.6801 32.7712 50.0528 31.8691L50.0512 31.8669L50.0498 31.8647C50.0248 31.8259 49.8251 31.5068 49.4679 30.9361C49.1108 30.3654 48.6041 29.5553 47.9901 28.5731C46.762 26.6085 45.1046 23.9551 43.3546 21.1502C39.8563 15.543 35.9911 9.33429 34.4459 6.80654C34.1894 6.44306 33.8099 6.29614 33.4756 6.40183V6.40168C33.1252 6.51269 32.9028 6.87882 32.906 7.44481V7.44528V30.2563C32.906 31.7204 31.7041 32.9132 30.2368 32.9132H19.2064C14.1877 32.9132 10.5128 31.0941 8.10198 28.4258C5.69112 25.7575 4.54244 22.2479 4.53901 18.867C4.53558 15.3591 5.75227 11.828 8.14042 9.16834C10.5286 6.5087 14.0912 4.72645 18.7476 4.71965H18.7478H25.4382V0.140529H19.5774Z" fill="#EFE6D2"/>
</svg>
