<svg aria-label="Consumer Reports Logo" role="img" preserveAspectRatio="true" viewBox="0 0 130 33" fill="none" xmlns="http://www.w3.org/2000/svg">
  <path d="M76.2129 19.6602C78.6822 19.6602 80.7119 21.6899 80.7119 24.1592C80.7117 26.6282 78.7072 28.657 76.2871 28.6572C74.7957 28.6572 73.4747 27.8504 72.7168 26.6035V32.1289H71.7637V19.7334H72.7168V21.6895C73.4502 20.4671 74.7217 19.6603 76.2129 19.6602ZM14.5713 0C18.5075 0 22.0284 1.56482 24.7178 4.05859V0.391602H37.0645C42.2719 0.391653 46.575 4.62068 46.5752 9.85254C46.5752 13.5199 44.4721 16.6491 41.4404 18.2139L47.8467 28.5566H39.4111L34.1553 19.583H32.0039V28.5811H24.6934V24.9131C22.0284 27.4069 18.5075 28.9717 14.5713 28.9717C6.57662 28.9716 0 22.5416 0 14.498C4.43527e-05 6.4545 6.5522 0.000101068 14.5713 0ZM99.3164 19.7578H102.422V20.6631H99.3164V26.3105C99.3164 27.2395 99.7079 27.7528 100.588 27.7529C101.199 27.7529 101.713 27.6059 102.227 27.2881L102.471 28.0703C101.859 28.4615 101.224 28.6572 100.539 28.7061C99.0478 28.706 98.3389 27.8018 98.3389 26.3594V16.7266H99.3164V19.7578ZM66.2383 19.6602C68.4876 19.6602 70.2969 21.3227 70.2969 23.7676V24.4277H62.9619C63.1086 26.3835 64.5757 27.8015 66.4092 27.8018C67.5827 27.8018 68.586 27.3372 69.2217 26.457L69.9062 27.0195C69.0505 28.0953 67.8272 28.6816 66.4092 28.6816C64.0135 28.6814 61.9846 26.7504 61.9844 24.1348C61.9844 21.4699 63.9402 19.6603 66.2383 19.6602ZM106.701 19.6855C107.899 19.6857 108.804 20.1017 109.635 20.7617L109.072 21.5439C108.412 20.9817 107.532 20.5412 106.701 20.541C105.846 20.541 104.892 20.9324 104.892 21.9346C104.892 22.7413 105.502 23.1089 106.603 23.4756L107.36 23.7197C109.34 24.3798 109.952 24.9175 109.952 26.1641C109.952 27.7532 108.608 28.6582 106.945 28.6582C105.503 28.6582 104.427 28.1934 103.596 27.46L104.134 26.7021C104.867 27.3623 105.845 27.8271 106.945 27.8271C107.997 27.8271 108.999 27.3375 108.999 26.1885C108.999 25.4065 108.412 25.1617 107.165 24.7217L106.31 24.4287C104.623 23.8419 103.938 23.1325 103.938 21.9834C103.938 20.4922 105.185 19.6855 106.701 19.6855ZM86.4824 19.6602C88.9516 19.6604 91.0049 21.69 91.0049 24.1592C91.0046 26.6282 89.0003 28.657 86.4824 28.6572C83.9643 28.6572 81.9592 26.6527 81.959 24.1592C81.959 21.6899 83.9886 19.6602 86.4824 19.6602ZM57.2158 15.7246C59.9541 15.7246 61.4453 17.3387 61.4453 19.5146C61.4451 21.3481 60.1738 22.9127 57.9736 23.2305L61.6904 28.585H60.4434L56.7764 23.3037H53.8906V28.585H52.8643V15.7246H57.2158ZM93.4004 21.4941C94.0605 20.1984 95.4061 19.4655 96.8975 19.6855V20.6875C95.2349 20.4675 93.6204 21.4211 93.4004 23.377V28.5605H92.4229V19.7588H93.376L93.4004 21.4941ZM76.2129 20.6133C74.2816 20.6135 72.7168 22.2034 72.7168 24.1592C72.717 26.1147 74.2574 27.7039 76.2129 27.7041C78.1442 27.7041 79.7097 26.1149 79.71 24.1592C79.71 22.2033 78.1688 20.6133 76.2129 20.6133ZM86.4824 20.6133C84.5265 20.6133 82.9365 22.2033 82.9365 24.1592C82.9368 26.1149 84.5267 27.7041 86.4824 27.7041C88.4624 27.7039 90.0515 26.1147 90.0518 24.1592C90.0518 22.2034 88.4626 20.6135 86.4824 20.6133ZM19.7549 9.36426C18.4346 8.04402 16.6005 7.2373 14.5713 7.2373C10.5618 7.23741 7.26176 10.513 7.26172 14.498C7.26172 18.4831 10.5618 21.7353 14.5713 21.7354C16.6005 21.7354 18.4346 20.9277 19.7549 19.583L24.6934 24.4736V4.44922L19.7549 9.36426ZM66.1895 20.54C64.5759 20.5401 63.2064 21.7387 62.9619 23.5234H69.2705C69.1727 21.7387 67.8031 20.54 66.1895 20.54ZM53.8662 16.6777V22.3506H57.1426C59.3672 22.3506 60.3943 21.0058 60.3945 19.5146C60.3945 17.8277 59.1962 16.6777 57.167 16.6777H53.8662ZM120.025 4.37891C122.275 4.37891 124.084 6.04145 124.084 8.48633V9.14648H116.749C116.896 11.1022 118.363 12.5203 120.196 12.5205C121.37 12.5205 122.373 12.0559 123.009 11.1758L123.693 11.7383C122.838 12.814 121.614 13.4004 120.196 13.4004C117.801 13.4002 115.772 11.4691 115.771 8.85352C115.771 6.18867 117.727 4.379 120.025 4.37891ZM92.8135 10.0527C92.8135 11.6175 93.7675 12.498 95.1855 12.498C96.9701 12.498 98.2898 11.2998 98.3145 8.95312V4.47852H99.2686V13.2803H98.3145V11.4219C97.7766 12.5953 96.5302 13.3778 95.0879 13.3779C93.0342 13.3779 91.8604 12.1308 91.8604 10.0771V4.47852H92.8135V10.0527ZM58.5859 0.296875C60.6639 0.297005 62.5218 1.25095 63.7441 2.71777L62.9619 3.47559C61.9596 2.15545 60.395 1.34876 58.5859 1.34863C55.5545 1.34863 53.0608 3.84168 53.0605 6.82422C53.0605 9.88032 55.5543 12.3252 58.5859 12.3252C60.3461 12.3251 61.9351 11.5428 62.9619 10.2227L63.7197 10.9072C62.5218 12.3985 60.6639 13.3524 58.5859 13.3525C54.9675 13.3525 52.0088 10.4182 52.0088 6.82422C52.0091 3.23047 54.9677 0.296875 58.5859 0.296875ZM69.2949 4.35547C71.7885 4.35569 73.8418 6.3853 73.8174 8.85449C73.8171 11.3235 71.8128 13.3523 69.2949 13.3525C66.7768 13.3525 64.7717 11.3481 64.7715 8.85449C64.7715 6.38516 66.8011 4.35547 69.2949 4.35547ZM87.166 4.37891C88.3638 4.37902 89.2685 4.79505 90.0996 5.45508L89.5371 6.2373C88.8771 5.67509 87.9971 5.23454 87.166 5.23438C86.3104 5.23438 85.3566 5.62573 85.3564 6.62793C85.3564 7.43469 85.9673 7.80223 87.0674 8.16895L87.8252 8.41309C89.8053 9.07313 90.4169 9.61083 90.417 10.8574C90.417 12.4466 89.0726 13.3515 87.4102 13.3516C85.9677 13.3516 84.8918 12.8868 84.0605 12.1533L84.5986 11.3955C85.3076 12.0556 86.2855 12.5205 87.4102 12.5205C88.4614 12.5205 89.4639 12.0309 89.4639 10.8818C89.4636 10.0998 88.8765 9.85503 87.6299 9.41504L86.7744 9.12207C85.0874 8.5353 84.4033 7.82585 84.4033 6.67676C84.4035 5.1856 85.6503 4.37891 87.166 4.37891ZM126.504 6.21289C127.164 4.91713 128.51 4.18426 130.001 4.4043V5.40625C128.338 5.18621 126.724 6.1398 126.504 8.0957V13.2793H125.526V4.47754H126.479L126.504 6.21289ZM79.4893 4.37891C81.543 4.37891 82.7168 5.62599 82.7168 7.67969V13.2783H81.7627V7.7041C81.7627 6.1394 80.8096 5.25881 79.3916 5.25879C77.6069 5.25879 76.2863 6.45691 76.2617 8.80371V13.2783H75.3086V4.47656H76.2617V6.33496C76.7996 5.16144 78.0468 4.37893 79.4893 4.37891ZM111.126 4.37891C113.131 4.37905 114.304 5.62611 114.279 7.67969V13.2783H113.326V7.7041C113.326 6.13956 112.422 5.25899 111.028 5.25879C109.39 5.25879 108.192 6.45691 108.167 8.80371V13.2783H107.214V7.7041C107.214 6.13952 106.309 5.25895 104.916 5.25879C103.278 5.25879 102.079 6.4569 102.055 8.80371H102.006V13.2783H101.053V4.47656H102.006V6.2373C102.519 5.13711 103.669 4.37891 104.989 4.37891C106.529 4.379 107.581 5.16133 107.972 6.48145C108.51 5.23457 109.708 4.37891 111.126 4.37891ZM32.0039 13.2754H35.9639C37.7974 13.2754 39.2888 11.8334 39.2891 10.0244C39.2891 8.2152 37.7975 6.72363 35.9639 6.72363H32.0039V13.2754ZM69.2949 5.33301C67.339 5.33301 65.749 6.923 65.749 8.87891C65.7492 10.8346 67.3392 12.4238 69.2949 12.4238C71.2749 12.4236 72.864 10.8345 72.8643 8.87891C72.8643 6.92314 71.2751 5.33323 69.2949 5.33301ZM120.001 5.25879C118.387 5.25886 117.018 6.45748 116.773 8.24219H123.082C122.984 6.45743 121.615 5.25879 120.001 5.25879Z" fill="#EFE6D2"/>
</svg>
