<svg aria-label="Coursera Logo" role="img" viewBox="0 0 120 17" fill="none" xmlns="http://www.w3.org/2000/svg">
  <path fill-rule="evenodd" clip-rule="evenodd" d="M24.9043 0.000190532C29.6875 0.000190532 33.542 3.78794 33.542 8.48554C33.542 13.1832 29.7211 17.0021 24.9043 17.0021C20.0877 17.0019 16.2988 13.1173 16.2988 8.48554C16.2989 3.78809 20.1213 0.000423392 24.9043 0.000190532ZM84.2236 0.000190532C88.997 0.000359865 92.3612 3.87786 92.3613 8.40253C92.3613 8.85491 92.3304 9.33917 92.2656 9.75996L79.9297 9.72871C80.4097 11.6991 82.0128 13.0905 84.415 13.1223C85.8886 13.1223 87.4585 12.5725 88.4209 11.3439L91.2744 13.6721C89.8009 15.7714 87.2043 17.0001 84.4492 17.0002C79.5774 16.9345 75.8283 13.2515 75.8281 8.46894C75.8281 3.87836 79.0972 -0.0314351 84.2236 0.000190532ZM110.686 0.000190532C113.265 0.000207801 114.746 0.776188 115.747 2.29902L116.134 0.292183H120.002V16.6769H116.134L115.648 14.9934C114.52 16.2242 113.102 17.0002 110.717 17.0002C107.064 17.0002 103.017 13.8997 102.768 9.0832L102.756 8.61445C102.756 3.46681 106.915 0.000190532 110.686 0.000190532ZM39.3262 9.75117C39.3263 11.8527 40.4614 13.0831 42.4482 13.0832C44.6562 13.0832 45.9482 11.6919 45.9482 9.04023V0.238472H50.0781V16.6115H45.9482V14.7014C44.9715 16.2534 43.3944 16.9982 41.2178 16.9982C37.6139 17.0289 35.3405 14.4494 35.2021 10.6408L35.1963 10.2717V0.238472H39.3262V9.75117ZM68.0742 0.000190532C70.7715 0.000324341 73.1809 1.19216 74.4961 3.44453L70.8027 5.40839C70.2579 4.31369 69.2306 3.70042 67.9131 3.70039C66.5955 3.70039 66.0195 4.15078 66.0195 4.89277C66.0203 7.43694 74.8828 5.8273 74.8828 11.9113C74.8826 15.0663 72.3144 16.9982 68.1699 16.9982C64.6373 16.9666 62.165 15.8059 60.9434 13.135L60.9453 13.1369L64.6709 11.174C65.2805 12.5264 66.533 13.298 68.2656 13.298C69.8712 13.298 70.4814 12.7814 70.4814 12.0734C70.4804 9.46624 61.6186 11.0444 61.6182 5.05585C61.6206 1.74003 64.5102 0.000190532 68.0742 0.000190532ZM8.53418 0.000190532C11.5918 0.000190532 14.2349 1.53328 15.7637 3.83222L12.1973 5.90644C11.3693 4.75823 10.0629 3.99238 8.53418 3.99238C6.08148 3.9925 4.1084 6.0359 4.1084 8.3664C4.10841 10.6969 6.11508 12.7403 8.53418 12.7404C10.1254 12.7404 11.5274 11.9108 12.293 10.6652L15.8281 12.7717C14.3305 15.1655 11.6254 16.7639 8.53418 16.7639C3.78948 16.7929 0 12.9614 0 8.39765C0.00019687 3.73433 3.78961 0.000306197 8.53418 0.000190532ZM60.1709 3.883C60.0414 3.85141 59.9116 3.85078 59.751 3.85078C57.4902 3.85078 56.1982 5.22091 56.1982 7.83125L56.2324 16.5207H52.0029L51.9697 0.413276H56.1982V2.29218C57.1678 0.764517 58.7495 0.0319027 60.9453 0.000190532L60.1709 3.883ZM102.005 3.883C101.88 3.85138 101.753 3.85078 101.597 3.85078C99.3719 3.8508 98.1191 5.22094 98.1191 7.83125V16.5207H94.0156V0.413276H98.1191V2.29218C99.0911 0.764438 100.625 0.0318319 102.756 0.000190532L102.005 3.883ZM111.362 4.08027C108.847 4.08027 106.882 6.12072 106.882 8.6457C106.882 10.913 108.912 12.9523 111.362 12.9523C113.909 12.9207 115.908 10.8792 115.908 8.58027C115.908 6.08682 113.877 4.08029 111.362 4.08027ZM24.9043 4.08222C22.3989 4.08247 20.4405 6.15513 20.4404 8.48554C20.4404 10.816 22.4637 12.9228 24.9043 12.923C27.3451 12.923 29.4336 10.8502 29.4336 8.48554C29.4336 6.155 27.4099 4.08222 24.9043 4.08222ZM84.2236 3.84589C82.2364 3.84589 80.6975 5.00934 80.0879 6.75605L88.1641 6.7873C87.9384 5.13808 86.2106 3.84603 84.2236 3.84589Z" fill="#EFE6D2"/>
</svg>
