<svg aria-label="Dropbox Logo" role="img" preserveAspectRatio="true" viewBox="0 0 120 24" fill="none" xmlns="http://www.w3.org/2000/svg">
  <path d="M33.2598 4.44545H38.8894C42.482 4.44545 45.4449 6.5204 45.4449 11.2631V12.2636C45.4449 17.0433 42.6672 19.1924 39.0005 19.1924H33.2598V4.44545ZM36.4079 7.11324V16.4876H38.8153C40.8523 16.4876 42.2227 15.1537 42.2227 12.1894V11.4113C42.2227 8.44713 40.7783 7.11324 38.7042 7.11324H36.4079ZM47.1116 7.26145H49.6301L50.0375 10.0404C50.519 8.15071 51.7412 7.15029 53.9634 7.15029H54.7412V10.3368H53.4449C50.8894 10.3368 50.2597 11.2261 50.2597 13.7457V19.2294H47.1486V7.26145H47.1116ZM55.3708 13.4863V13.1528C55.3708 9.15113 57.9264 6.96503 61.4079 6.96503C64.9634 6.96503 67.4449 9.15113 67.4449 13.1528V13.4863C67.4449 17.4139 65.0375 19.5259 61.4079 19.5259C57.556 19.4888 55.3708 17.4139 55.3708 13.4863ZM64.2597 13.4492V13.1528C64.2597 10.9297 63.1486 9.59576 61.3708 9.59576C59.6301 9.59576 58.4819 10.8185 58.4819 13.1528V13.4492C58.4819 15.5983 59.5931 16.821 61.3708 16.821C63.1486 16.784 64.2597 15.5983 64.2597 13.4492ZM69.0745 7.26145H71.6671L71.9634 9.52166C72.593 8.0025 73.9264 6.96503 75.8893 6.96503C78.9264 6.96503 80.9263 9.15113 80.9263 13.1899V13.5233C80.9263 17.4509 78.7041 19.5259 75.8893 19.5259C74.0004 19.5259 72.7041 18.6737 72.0745 17.3027V23.3423H69.0375L69.0745 7.26145ZM77.7782 13.4492V13.1899C77.7782 10.8185 76.556 9.63282 74.9264 9.63282C73.1856 9.63282 72.0375 10.9667 72.0375 13.1899V13.4122C72.0375 15.5242 73.1486 16.8581 74.8893 16.8581C76.6671 16.821 77.7782 15.6724 77.7782 13.4492ZM85.5189 17.0063L85.2597 19.1924H82.593V3.25977H85.6301V9.37345C86.2967 7.81724 87.6301 6.96503 89.5189 6.96503C92.3708 7.00208 94.4819 8.96587 94.4819 12.9305V13.301C94.4819 17.2657 92.4819 19.5259 89.4449 19.5259C87.4449 19.4888 86.1486 18.5625 85.5189 17.0063ZM91.2967 13.301V13.0046C91.2967 10.8185 90.1115 9.59576 88.4449 9.59576C86.7412 9.59576 85.556 10.9667 85.556 13.0417V13.301C85.556 15.5242 86.7041 16.821 88.4078 16.821C90.2226 16.821 91.2967 15.6724 91.2967 13.301ZM95.8152 13.4863V13.1528C95.8152 9.15113 98.3708 6.96503 101.852 6.96503C105.408 6.96503 107.889 9.15113 107.889 13.1528V13.4863C107.889 17.4139 105.445 19.5259 101.852 19.5259C98.0004 19.4888 95.8152 17.4139 95.8152 13.4863ZM104.741 13.4492V13.1528C104.741 10.9297 103.63 9.59576 101.852 9.59576C100.112 9.59576 98.9634 10.8185 98.9634 13.1528V13.4492C98.9634 15.5983 100.074 16.821 101.852 16.821C103.63 16.784 104.741 15.5983 104.741 13.4492ZM111.963 13.0046L107.778 7.26145H111.371L113.778 10.8556L116.223 7.26145H119.778L115.519 12.9676L120 19.1924H116.482L113.741 15.2278L111.074 19.1924H107.408L111.963 13.0046Z" fill="#EFE6D2"/>
  <path d="M13.9259 4.44631L6.96295 8.89263L13.9259 13.3389L6.96295 17.7853L0 13.3019L6.96295 8.85558L0 4.44631L6.96295 0L13.9259 4.44631L20.8518 0L27.8148 4.44631L20.8518 8.89263L27.8148 13.3389L20.8518 17.7853L13.9259 13.3019L20.8889 8.85558L13.9259 4.44631Z" fill="#EFE6D2"/>
  <path d="M13.8889 14.7469L6.92592 19.1933L13.8889 23.6396L20.8518 19.1933L13.8889 14.7469Z" fill="#EFE6D2"/>
</svg>
