<svg aria-label="Linkedin Logo" role="img" preserveAspectRatio="true" viewBox="0 0 110 28" fill="none" xmlns="http://www.w3.org/2000/svg">
  <path d="M33.5789 15.8783V23.9167H29.5263V16.8467C29.5263 14.6883 28.3279 13.79 27.2105 13.79C26.4437 13.768 25.6995 14.0536 25.1416 14.5841C24.5836 15.1146 24.2574 15.8465 24.2347 16.6192C24.2285 16.7182 24.2285 16.8176 24.2347 16.9167V23.9167H20.2632V10.5H24.0842V12.3958H24.1363C24.5358 11.5733 26.2437 10.2083 28.5711 10.2083C30.8984 10.2083 33.5789 11.795 33.5789 15.8783ZM13.8947 23.9167H17.9474V10.5H13.8947V23.9167ZM15.9211 3.7625C15.4586 3.76825 15.0081 3.91169 14.6264 4.17475C14.2446 4.43782 13.9486 4.80877 13.7755 5.24094C13.6025 5.6731 13.5602 6.14718 13.6539 6.60352C13.7476 7.05986 13.9732 7.47809 14.3022 7.80558C14.6313 8.13307 15.0491 8.35519 15.5031 8.44401C15.9571 8.53283 16.4271 8.48437 16.8539 8.30474C17.2806 8.1251 17.6451 7.82231 17.9015 7.43445C18.1579 7.0466 18.2947 6.59101 18.2947 6.125C18.2947 5.50616 18.0508 4.91267 17.6165 4.47508C17.1822 4.0375 16.5931 3.79167 15.9789 3.79167L15.9211 3.7625ZM110 2.04167V25.9583C110 26.4998 109.787 27.0191 109.407 27.402C109.026 27.7849 108.511 28 107.974 28H84.2368C83.6994 28 83.184 27.7849 82.804 27.402C82.424 27.0191 82.2105 26.4998 82.2105 25.9583V2.04167C82.2105 1.50018 82.424 0.980877 82.804 0.59799C83.184 0.215104 83.6994 0 84.2368 0L107.974 0C108.511 0 109.026 0.215104 109.407 0.59799C109.787 0.980877 110 1.50018 110 2.04167ZM90.3158 10.5H86.2632V23.9167H90.3158V10.5ZM90.6632 6.125C90.6689 5.65202 90.5352 5.18797 90.2792 4.79151C90.0231 4.39505 89.6561 4.084 89.2246 3.89769C88.7931 3.71138 88.3165 3.65817 87.8549 3.74479C87.3934 3.83142 86.9678 4.05399 86.6318 4.38435C86.2958 4.71472 86.0646 5.13805 85.9674 5.60081C85.8702 6.06357 85.9114 6.54498 86.0857 6.98417C86.26 7.42336 86.5597 7.8006 86.9468 8.06818C87.3339 8.33577 87.7911 8.4817 88.2605 8.4875H88.2895C88.5936 8.49526 88.8963 8.44255 89.1802 8.33241C89.4641 8.22226 89.7237 8.05682 89.9442 7.84555C90.1646 7.63428 90.3415 7.38131 90.4649 7.10111C90.5883 6.8209 90.6557 6.51895 90.6632 6.2125V6.125ZM105.947 15.8783C105.947 11.795 103.267 10.2083 100.939 10.2083C98.6121 10.2083 96.8868 11.5733 96.5047 12.3958H96.4526V10.5H92.6316V23.9167H96.6842V16.9167C96.6842 14.7642 98.1374 13.8075 99.55 13.8075C100.708 13.8075 101.895 14.7058 101.895 16.8642V23.9167H105.947V15.8783ZM4.63158 4.08333H0V23.9167H12.1579V19.8333H4.63158V4.08333ZM62.5263 17.3658V18.5325H52.6842C52.691 18.6192 52.7126 18.704 52.7479 18.7833C53.0837 19.9092 54.2937 20.86 56.0768 20.86C56.6393 20.8885 57.2007 20.7853 57.717 20.5586C58.2332 20.3319 58.6904 19.9878 59.0526 19.5533L62.0053 21.4083C61.2859 22.321 60.3633 23.0501 59.3122 23.5365C58.2611 24.023 57.1111 24.2531 55.9553 24.2083C52.0705 24.2083 48.6316 21.8283 48.6316 17.2608C48.6316 12.6933 52.1053 10.2083 55.8337 10.2083C59.5621 10.2083 62.5263 12.7225 62.5263 17.3658ZM58.4737 15.75C58.4737 14.35 57.5705 13.195 55.7237 13.195C53.9868 13.195 52.7768 14.3617 52.6842 15.75H58.4737ZM49.3611 10.5H44.3937L40.0284 15.9658H39.9474V4.08333H35.8947V23.9167H39.9474V17.5H40.0284L44.4979 23.9167H49.5753L44.1158 16.5842L49.3611 10.5ZM74.1053 4.08333H78.1579V23.9167H74.3368V22.1667H74.2847C73.7753 23.0533 72.409 24.2025 70.0005 24.2025C67.1058 24.2025 63.6842 22.085 63.6842 17.2025C63.6842 12.81 66.6368 10.2317 69.9484 10.2317C70.7157 10.2204 71.4769 10.3702 72.1836 10.6715C72.8902 10.9727 73.5269 11.4189 74.0532 11.9817H74.1053V4.08333ZM74.2789 17.2025C74.2905 16.7628 74.2159 16.325 74.0595 15.9143C73.9031 15.5036 73.6679 15.128 73.3674 14.8089C73.0668 14.4898 72.7068 14.2336 72.3079 14.0547C71.909 13.8759 71.4791 13.778 71.0426 13.7667H70.9558C70.1061 13.7463 69.283 14.0666 68.6675 14.6572C68.052 15.2479 67.6944 16.0605 67.6732 16.9167V17.1733C67.6473 17.6023 67.7055 18.0322 67.8446 18.4386C67.9836 18.8449 68.2007 19.2196 68.4835 19.5414C68.7663 19.8631 69.1092 20.1256 69.4927 20.3138C69.8761 20.502 70.2927 20.6123 70.7184 20.6383H70.95C71.8432 20.626 72.6951 20.2575 73.3191 19.6135C73.9431 18.9695 74.2882 18.1025 74.2789 17.2025Z" fill="#EFE6D2"/>
</svg>
