<svg aria-label="SAP Logo" role="img" preserveAspectRatio="true" viewBox="0 0 100 50" fill="none" xmlns="http://www.w3.org/2000/svg">
  <path d="M100 0L50.5391 49.4688H0V0H100ZM13.5996 8.77734C9.41014 8.77734 5.91819 10.1349 3.75391 12.3721C2.24535 13.9345 1.43239 15.9189 1.39844 18.1143C1.34342 21.1342 2.45113 23.2777 4.77832 24.9863C6.74342 26.4276 9.25659 27.3611 11.4717 28.0479C14.2043 28.8946 16.4347 29.6301 16.4092 31.2002C16.3891 31.7712 16.1724 32.3045 15.7617 32.7373C15.0811 33.4398 14.034 33.7043 12.5889 33.7314C9.80098 33.7904 7.73236 33.3534 4.43848 31.4072L1.39844 37.4453C4.68327 39.3137 8.57332 40.4092 12.542 40.4092L13.0527 40.4043C16.5073 40.3421 19.2955 39.3569 21.5225 37.5635C21.6501 37.4627 21.7648 37.3586 21.8828 37.2539L20.8955 39.8906H29.8379L31.3379 35.3271C32.9085 35.864 34.6962 36.1602 36.5947 36.1602C38.442 36.1601 40.1821 35.8759 41.7246 35.3711L43.1709 39.8906H57.7539V30.4414H60.9346C68.6228 30.4412 73.1689 26.5254 73.1689 19.9648C73.1689 12.6563 68.7514 9.30278 59.3447 9.30273V9.30176L49.501 9.2959V32.7012L40.9023 9.2959H32.376L25.0342 28.8691C24.2523 23.934 19.1472 22.2298 15.1309 20.9521C12.4787 20.1005 9.66448 18.8473 9.69043 17.4629C9.71283 16.3265 11.201 15.2709 14.1475 15.4297C16.1285 15.5347 17.8752 15.6947 21.3516 17.3711L24.7715 11.416C21.5977 9.80149 17.2129 8.78122 13.6201 8.77734H13.5996ZM39.6865 28.8057C38.7649 29.1328 37.713 29.3291 36.5957 29.3291C35.4471 29.3291 34.3699 29.1282 33.4414 28.7773L36.5615 18.9336H36.6201L39.6865 28.8057ZM59.9229 15.7412C62.815 15.7412 65.121 16.7013 65.1211 19.6543C65.1211 22.7102 62.8151 23.6729 59.9229 23.6729H57.7549V15.7412H59.9229Z" fill="#EFE6D2"/>
</svg>
