<svg aria-label="The Onion Logo" role="img" viewBox="0 0 130 21" fill="none" xmlns="http://www.w3.org/2000/svg">
  <path fill-rule="evenodd" clip-rule="evenodd" d="M16.5585 0C17.0252 0 16.5587 1.25138 17.0253 1.43848C17.5232 1.65141 17.8139 0.295803 18.3065 0.72168C18.9859 1.30855 17.6583 1.84415 18.0214 2.21289C18.2808 2.47687 18.9024 1.97921 19.1151 2.32129C19.4782 2.88221 18.4929 3.2563 17.6112 3.41211C14.3857 3.97853 21.2985 18.4166 10.0761 20.4111C7.11489 20.972 5.73544 18.3028 3.52627 19.6113C2.98172 19.9333 2.59188 21.1584 2.25479 20.6494C2.04821 20.3378 2.59691 19.829 2.25479 19.6162C2.02143 19.4873 1.68432 20.0732 1.45107 19.8604C1.26994 19.6734 1.52893 19.3775 1.34756 19.1387C1.192 18.8998 0.828905 19.1127 0.647364 18.8428L0.631739 18.8271L0.626856 18.832C0.34164 18.4114 1.48777 18.1673 1.69522 17.6895C2.73237 15.664 0.886254 16.4949 0.108301 11.8574C-1.39558 3.09634 13.2271 3.09496 15.1786 2.74707C16.973 2.42507 15.148 0.000103837 16.5585 0ZM105.615 3.8584C109.645 3.85861 113.534 7.15649 113.534 11.7891C113.534 16.7227 110.122 20.2488 105.615 20.249V20.2539C101.103 20.2539 97.6905 16.728 97.6903 11.7891C97.6903 7.16155 101.565 3.8584 105.615 3.8584ZM64.4892 3.84277C68.5186 3.84296 72.4032 7.14576 72.4032 11.7783C72.4032 16.7123 68.9953 20.2441 64.4833 20.2441V20.249C59.9715 20.2489 56.5644 16.7222 56.5644 11.7832C56.5646 7.15077 60.4332 3.84292 64.4833 3.84277H64.4892ZM47.8124 9.43652C50.7568 9.43753 52.82 11.3843 52.8202 14.5098V15.7979H45.5028C45.5028 16.9612 46.8197 17.5644 47.8153 17.5645C48.8318 17.5645 49.3502 17.2679 49.8895 16.8213L52.078 18.3584C51.6424 18.8155 50.3099 20.208 47.6962 20.208C44.0816 20.208 42.0899 17.8551 42.0897 14.4482C42.0897 11.4109 44.4689 9.43769 47.8124 9.43652ZM83.8075 10.75L83.8017 10.7393V4.41895L88.869 4.07617V20.1143L79.0565 13.2842V19.709H73.9745V3.63867L83.8075 10.75ZM124.928 10.75V4.41406L130 4.07129V20.1094L120.183 13.2793V19.7041H115.095V3.63477L124.928 10.75ZM26.0907 10.0176L28.5019 9.96094V12.9365L26.0858 12.8584V15.2734C26.0858 16.3639 26.407 16.7645 27.1796 16.7646C27.5789 16.7646 28.1184 16.6808 28.3622 16.499L29.1767 19.0957C28.7981 19.3554 28.1598 19.958 25.9608 19.958L25.9765 19.9736C22.9429 19.9735 22.3828 17.6577 22.3827 15.3623V12.8799L20.7489 12.9414V9.96094L22.3827 10.002V6.12793L26.0907 5.74316V10.0176ZM34.1815 10.5889C34.2642 10.5392 35.7616 9.62317 38.0702 9.62305C39.8696 9.62305 40.7673 11.2328 40.7675 13.0244V19.7559H37.0546V14.957C37.0546 13.4405 36.9862 12.4229 35.7157 12.4229C35.0306 12.4231 34.2045 12.9273 34.1815 12.9414V19.7559H30.4521V4.07617L34.1815 3.77539V10.5889ZM96.1034 19.709H90.995V4.41895H96.1034V19.709ZM11.621 17.9756C15.7803 16.459 15.7288 10.9223 15.0546 12.4648C14.3804 13.9813 13.9344 15.2072 12.4823 16.0537C11.3414 16.7185 10.5323 16.8017 9.12686 16.7705C7.96005 16.7445 6.89693 15.7576 6.55459 17.2529C6.19159 18.8992 10.0909 18.5306 11.621 17.9697V17.9756ZM15.5214 4.07715C14.8757 3.41497 12.0377 4.30842 12.0155 4.31543C7.57103 5.90987 2.73716 8.89694 2.4208 12.626C2.31717 13.7167 2.629 15.7674 3.98232 16.6191C4.91581 17.206 6.52822 13.0204 8.11514 10.7871C11.3096 6.25852 16.0653 4.63814 15.5214 4.07715ZM14.5829 9.59277C15.9106 4.79386 15.2357 5.75438 11.3876 9.82617C9.31322 12.0387 7.67498 14.8333 8.27139 14.9424C9.46449 15.15 13.2865 14.251 14.5829 9.59277ZM105.62 9.11426C104.142 9.11426 102.804 10.3449 102.804 11.7939C102.804 13.5857 104.142 14.8584 105.62 14.8584C107.072 14.8584 108.41 13.5857 108.41 11.7939C108.41 10.3397 107.077 9.11427 105.62 9.11426ZM64.4911 9.1084C63.0091 9.11002 61.6779 10.3353 61.6776 11.7832C61.6776 13.575 63.0111 14.8477 64.4892 14.8477V14.8525C65.941 14.8523 67.2839 13.5857 67.2841 11.7891C67.2841 10.3356 65.9475 9.10968 64.4911 9.1084ZM47.7685 11.8516C45.9798 11.8517 45.3836 13.3255 45.539 13.7412H49.7392C49.8428 13.7412 49.8224 13.5336 49.8017 13.4453C49.7044 12.9826 49.4469 12.569 49.0751 12.2773C48.7032 11.9858 48.2403 11.8353 47.7685 11.8516ZM9.43838 4.39941C6.9699 4.47732 1.96021 6.54899 1.72647 9.74805C1.64349 10.7608 3.22991 8.12291 4.99307 6.78809H4.99893C6.76198 5.45876 10.1683 4.36858 9.43838 4.39941ZM73.9745 3.63477V3.63867L73.9687 3.63477H73.9745Z" fill="#EFE6D2"/>
</svg>
