<svg aria-label="Udemy Logo" role="img" preserveAspectRatio="true" viewBox="0 0 102 38" fill="none" xmlns="http://www.w3.org/2000/svg">
  <path d="M92.6016 25.3809L97.7803 12.873H102C102 12.873 95.2404 28.6661 93.5059 32.7207C91.82 36.6597 90.0591 38 87.3584 38H85.4873V34.3545H87C87.9293 34.3545 88.7941 34.0086 89.6172 32.125C90.4403 30.2417 90.4404 30.2412 90.4404 30.2412L83.3398 12.873H87.5586L92.6016 25.3809ZM4.15039 22.8662C4.15062 25.4484 6.09533 26.7058 7.92285 26.7061C9.76457 26.7061 11.696 25.4144 11.6963 22.832V12.873H15.8467V23.1035C15.8467 25.4823 15.0925 27.3184 13.583 28.5762C12.0735 29.8339 10.1868 30.4453 7.88867 30.4453C5.59079 30.4453 3.70441 29.8337 2.22949 28.5762C0.754488 27.3184 0 25.5509 0 23.2051V12.873H4.15039V22.8662ZM47.168 12.3965C49.6718 12.3965 51.7295 13.2124 53.3066 14.8779C54.9184 16.5436 55.707 18.5831 55.707 21.0303C55.707 21.8177 55.6195 22.6566 55.6191 22.6602H42.209C42.434 25.2632 44.4316 26.9443 47.4072 26.9443C49.0394 26.9443 50.4712 26.4003 51.7275 25.292L54.8105 27.0557C52.9292 29.1798 50.4211 30.4111 47.2705 30.4111C44.5608 30.4111 42.3312 29.5952 40.6504 27.998C38.9698 26.3995 38.1123 24.2586 38.1123 21.5732V21.4375C38.1124 18.7183 38.9699 16.5435 40.6504 14.8779C42.3657 13.2124 44.5273 12.3965 47.168 12.3965ZM36.1201 30.0029H32.0049V28.4258C31.0667 29.2833 29.2918 30.377 26.4824 30.377C24.0478 30.3769 21.9902 29.5267 20.3096 27.8271C18.6633 26.0932 17.8399 23.9863 17.8398 21.4365C17.8398 18.8867 18.6633 16.7799 20.3096 15.0801C21.9902 13.3476 24.0478 12.4981 26.4824 12.498C28.5287 12.498 30.6449 13.2154 32.0049 14.4238V6.3125H36.1201V30.0029ZM76.9414 12.5332C80.5215 12.5332 82.9434 14.9312 82.9434 19.3975V30.002H78.8281V19.9746C78.828 17.6302 77.6967 16.169 75.7412 16.1689C73.718 16.1689 72.3117 17.7998 72.3115 20.1455V30.0029H68.2305V19.9766C68.2305 17.632 67.0991 16.1699 65.1436 16.1699C63.2227 16.1702 61.7822 17.836 61.7822 20.1475V30.0039H57.7012V12.874H61.7822V14.6572C62.5095 13.7731 63.9706 12.5332 66.4463 12.5332C69.3771 12.5332 70.6314 14.2155 71.0762 15.0566C72.1895 13.8191 73.815 12.5332 76.9414 12.5332ZM27.0312 16.2021C25.5563 16.2021 24.3557 16.7128 23.3613 17.6982C22.4015 18.6836 21.921 19.9416 21.9209 21.4375C21.9209 22.9333 22.4015 24.1913 23.3613 25.1768C24.3557 26.1622 25.5562 26.6729 27.0312 26.6729C28.5062 26.6728 29.7751 26.1621 30.7695 25.1768C31.7984 24.1913 32.3135 22.9334 32.3135 21.4375C32.3134 19.9416 31.7984 18.6836 30.7695 17.6982C29.7751 16.713 28.506 16.2022 27.0312 16.2021ZM47.167 15.8633C45.8979 15.8633 44.7651 16.2368 43.8398 16.9512C42.9541 17.6338 42.4465 18.4725 42.3135 19.4668H51.5186C51.4801 18.5042 51.038 17.6667 50.2188 16.9854C49.3612 16.237 48.367 15.8633 47.167 15.8633ZM15.8467 4.5332V9.06641H15.8457L7.92188 4.5332L0 9.06641V4.5332L7.92285 0L15.8467 4.5332Z" fill="#EFE6D2"/>
</svg>
