<svg viewBox="0 0 204 24" xmlns="http://www.w3.org/2000/svg">
  <path
    d="M31.307 0v5.279H25.13V0h6.177zm0 6.675v16.7H25.13v-16.7h6.177zM17.168 0v18.39L7.383 0H0l12.446 23.385h10.899V0h-6.177zM53.06 0v23.385H41.525c-4.704 0-8.441-4.756-8.441-9.09 0-4.93 3.443-9.007 8.322-9.007h4.059v5.28h-1.997c-2.145 0-3.913 1.698-3.913 3.782s1.74 3.755 3.885 3.755h3.443V0h6.177zm21.89 23.385H64.511c-5.293 0-9.914-3.434-9.914-9.126 0-4.637 4.382-8.98 9.942-8.98H74.95v5.279l-4.115 6.014h-6.996l4.354-6.014h-3.176c-2.356 0-3.94 1.525-3.94 3.636 0 2.259 1.768 3.902 3.94 3.902h9.942v5.28l-.009.009zM86.495 24c-5.588 0-10.614-3.847-10.614-9.65 0-5.802 5.173-9.677 10.65-9.677s10.587 3.902 10.587 9.678c0 5.774-5.063 9.649-10.614 9.649h-.009zm-4.152-9.659c0 2.58 1.795 4.371 4.179 4.371 2.384 0 4.115-1.791 4.115-4.371 0-2.58-1.703-4.398-4.087-4.398-2.384 0-4.207 1.873-4.207 4.398"
    fill="currentColor"
 />
  <path
    d="M126.308 8.869h-3.765c-1.031 0-1.859-.496-1.859-1.515s.801-1.423 1.804-1.441h10.282V0h-10.512c-3.958 0-8.055 2.809-8.055 7.308s4.097 7.143 8.055 7.143h3.765c1.049 0 1.896.478 1.896 1.524s-.856 1.506-1.896 1.506h-11.691v5.904h11.985c3.977 0 8.092-2.534 8.092-7.41 0-4.535-4.115-7.115-8.092-7.115l-.009.009zm-20.233 4.04c0 1.23-.653 4.563-4.289 4.572H97.8v5.913l4.759.046h1.178c5.441-.009 8.681-3.507 8.681-9.714V0h-6.343v12.909z"
    fill="var(--color-orange)" />
  <path
    d="M203.912 11.72c0 6.468-5.252 11.72-11.72 11.72H155.72c-6.468 0-11.72-5.252-11.72-11.72C144 5.252 149.252 0 155.72 0h36.472c6.468 0 11.72 5.252 11.72 11.72"
    fill="var(--color-orange)" />
  <path
    d="M156.957 5.718v11.857h2.657v-1.132c.705 1.05 1.05 1.28 2.214 1.28.968 0 1.492-.197 1.968-.706.541-.59.722-1.607.722-3.952 0-1.771-.148-2.509-.624-3.149-.426-.574-1.098-.836-2.148-.836-1.017 0-1.607.344-2.017 1.099V5.718h-2.772zm3.756 5.445c.885 0 1 .164 1 1.558 0 1.426-.049 2.41-.115 2.574-.114.23-.426.345-1.033.345-.426 0-.639-.115-.721-.361-.099-.279-.148-1.148-.148-2.673 0-1.197.18-1.443 1.017-1.443zM173.784 13.901c.032-.344.032-.459.032-.688 0-1.657-.131-2.346-.541-2.903-.656-.902-1.623-1.23-3.559-1.23-1.426 0-2.164.197-2.771.705-.722.607-.984 1.509-.984 3.46 0 2.149.131 2.821.623 3.428.64.787 1.492 1.05 3.411 1.05 1.771 0 2.575-.197 3.133-.755.426-.443.606-.967.639-1.902h-2.657c.017.131.017.18.017.213 0 .18-.049.426-.213.541-.164.115-.46.131-1.165.131-.508 0-.787-.098-.935-.278-.164-.197-.229-.591-.229-1.132 0-.23.016-.41.033-.64h5.166zm-5.15-1.394c0-1.656.115-1.722 1.246-1.722 1.23 0 1.329.148 1.329 1.263 0 .197 0 .312-.033.459h-2.542zM180.163 14.164c.033.246.033.295.033.426 0 1.001-.148 1.099-.984 1.099-.722 0-.787-.082-.787-1.673v-2.821h3.526V9.227h-3.526V7.604h-2.772v1.623h-.951v1.968h.951v3.264c0 1.296.131 1.755.459 2.247.492.721 1.312 1.017 2.788 1.017 1.542 0 2.526-.279 3.018-.87.279-.36.426-1.066.426-2.132 0-.098 0-.164-.016-.557h-2.165zM188.314 17.575h2.64v-5.904c0-.869-.262-1.525-.77-1.952-.624-.508-1.247-.639-3.182-.639-1.853 0-2.411.115-2.919.639-.345.345-.459.755-.459 1.624h2.64c0-.508.213-.656.918-.656.525 0 .82.098.935.312.131.213.148.377.148 1.377v.853c-.377-.705-.886-.902-2.395-.902-1.918 0-2.64.738-2.64 2.722 0 1.017.197 1.657.64 2.067.442.41.967.541 2.148.541 1.132 0 1.361-.082 2.165-.804l.131-.114v.836zm-1.41-3.657c.606 0 .984.049 1.164.164.131.082.148.164.148.574 0 .771-.033.951-.181 1.082-.131.131-.41.181-.918.181-.935 0-1.148-.148-1.148-.853 0-1.017.115-1.148.935-1.148z"
    fill="var(--color-manila-light)" />
</svg>
