<svg aria-label="Zoom Logo" role="img" preserveAspectRatio="true" viewBox="0 0 100 22" fill="none" xmlns="http://www.w3.org/2000/svg">
  <path fill-rule="evenodd" clip-rule="evenodd" d="M81.4186 6.59723C81.8008 7.24286 81.9259 7.97743 81.9672 8.80324L82.0214 9.90393V17.6007L82.0769 18.7025C82.1878 20.502 83.5433 21.8325 85.3956 21.9457L86.5152 22V9.90393L86.5706 8.80324C86.6166 7.98667 86.7405 7.23824 87.1287 6.58799C87.5242 5.92103 88.092 5.36767 88.775 4.98348C89.4581 4.59928 90.2323 4.39777 91.0201 4.39918C91.8079 4.40058 92.5814 4.60485 93.263 4.99148C93.9446 5.37811 94.5103 5.93348 94.9034 6.60185C95.2856 7.24748 95.4048 7.99591 95.4508 8.80324L95.5062 9.90046V17.6007L95.5617 18.7025C95.6773 20.5112 97.0223 21.8418 98.8804 21.9457L100 22V8.80324C100 6.46969 99.0533 4.23166 97.3682 2.58127C95.683 0.930875 93.3973 0.00323181 91.0137 0.00231305C89.7379 0.000995875 88.4765 0.266231 87.3138 0.780298C86.151 1.29437 85.1138 2.04543 84.2713 2.98331C83.4283 2.0458 82.391 1.29492 81.2284 0.780697C80.0658 0.266477 78.8046 0.000728203 77.5288 0.00115785C75.6624 0.00115785 73.9305 0.555547 72.4959 1.51302C71.6205 0.556701 69.6621 0.00115785 68.5378 0.00115785V22L69.6621 21.9457C71.5427 21.8244 72.9018 20.5297 72.9749 18.7025L73.0351 17.6007V9.90393L73.0905 8.80324C73.1377 7.97281 73.2557 7.24286 73.6391 6.59261C74.035 5.92606 74.6025 5.37284 75.2851 4.98817C75.9676 4.60351 76.7413 4.40086 77.5288 4.40046C78.317 4.40063 79.0913 4.60368 79.774 4.98925C80.4567 5.37482 81.0239 5.92935 81.4186 6.59723ZM4.49376 21.9469L5.61808 22H22.4712L22.4157 20.9028C22.2635 19.0941 20.9551 17.7728 19.1017 17.655L17.9774 17.6007H7.86673L21.3468 4.39931L21.2914 3.30324C21.2041 1.47606 19.8403 0.155925 17.9774 0.0554414L16.8531 0.00577766L0 0.00115785L0.0554494 1.10185C0.202921 2.89322 1.53017 4.24223 3.36825 4.34618L4.49376 4.40046H14.6044L1.12432 17.6018L1.17977 18.7025C1.29067 20.5159 2.62736 21.8291 4.49376 21.9457V21.9469ZM64.1266 3.22123C65.1701 4.2426 65.9979 5.45521 66.5627 6.7898C67.1274 8.1244 67.4181 9.55484 67.4181 10.9994C67.4181 12.444 67.1274 13.8744 66.5627 15.209C65.9979 16.5436 65.1701 17.7562 64.1266 18.7776C62.0184 20.8399 59.16 21.9983 56.1797 21.9983C53.1993 21.9983 50.341 20.8399 48.2327 18.7776C43.8451 14.4823 43.8451 7.51659 48.2327 3.22123C49.2753 2.20021 50.5131 1.39022 51.8754 0.837517C53.2377 0.284816 54.6979 0.000228005 56.1726 2.65159e-06C57.6497 -0.00100129 59.1124 0.283085 60.4773 0.836013C61.8421 1.38894 63.0822 2.19986 64.1266 3.22239V3.22123ZM60.9471 6.33621C62.2109 7.57436 62.9208 9.25311 62.9208 11.0035C62.9208 12.7538 62.2109 14.4326 60.9471 15.6707C59.6824 16.908 57.9676 17.6029 56.1797 17.6029C54.3917 17.6029 52.6769 16.908 51.4122 15.6707C50.1484 14.4326 49.4385 12.7538 49.4385 11.0035C49.4385 9.25311 50.1484 7.57436 51.4122 6.33621C52.6769 5.09898 54.3917 4.404 56.1797 4.404C57.9676 4.404 59.6824 5.09898 60.9471 6.33621ZM32.5913 2.65159e-06C34.066 0.000379687 35.5263 0.28515 36.8886 0.83805C38.2509 1.39095 39.4887 2.20115 40.5311 3.22239C44.9199 7.51659 44.9199 14.4834 40.5311 18.7776C38.4229 20.8399 35.5645 21.9983 32.5842 21.9983C29.6039 21.9983 26.7455 20.8399 24.6372 18.7776C20.2496 14.4823 20.2496 7.51659 24.6372 3.22123C25.6798 2.20021 26.9176 1.39022 28.2799 0.837517C29.6422 0.284816 31.1024 0.000228005 32.5771 2.65159e-06H32.5913ZM37.3516 6.3339C38.6158 7.5721 39.3259 9.25109 39.3259 11.0017C39.3259 12.7524 38.6158 14.4314 37.3516 15.6696C36.0869 16.9068 34.3721 17.6018 32.5842 17.6018C30.7962 17.6018 29.0815 16.9068 27.8167 15.6696C26.5529 14.4314 25.843 12.7527 25.843 11.0023C25.843 9.25195 26.5529 7.57321 27.8167 6.33505C29.0815 5.09783 30.7962 4.40284 32.5842 4.40284C34.3721 4.40284 36.0869 5.09783 37.3516 6.33505V6.3339Z" fill="#EFE6D2"/>
</svg>
