<svg xmlns="http://www.w3.org/2000/svg" width="18" height="18" viewBox="0 0 18 18" fill="currentColor">
  <path
    d="M12.732233,5.81801948 L14.5,7.586 L16.267767,5.81801948 C16.6582912,5.42749519 17.2914562,5.42749519 17.6819805,5.81801948 C18.0725048,6.20854378 18.0725048,6.84170876 17.6819805,7.23223305 L15.914,9 L17.6819805,10.767767 C18.0725048,11.1582912 18.0725048,11.7914562 17.6819805,12.1819805 C17.2914562,12.5725048 16.6582912,12.5725048 16.267767,12.1819805 L14.5,10.414 L12.732233,12.1819805 C12.3417088,12.5725048 11.7085438,12.5725048 11.3180195,12.1819805 C10.9274952,11.7914562 10.9274952,11.1582912 11.3180195,10.767767 L13.085,9 L11.3180195,7.23223305 C10.9274952,6.84170876 10.9274952,6.20854378 11.3180195,5.81801948 C11.7085438,5.42749519 12.3417088,5.42749519 12.732233,5.81801948 Z M3.78571429,6.00820648 L0.714285714,6.00820648 C0.285714286,6.00820648 0,6.30901277 0,6.76022222 L0,11.2723167 C0,11.7235261 0.285714286,12.0243324 0.714285714,12.0243324 L3.78571429,12.0243324 L7.85714286,15.8819922 C8.35714286,16.1827985 9,15.8819922 9,15.2803796 L9,2.75215925 C9,2.15054666 8.35714286,1.77453879 7.85714286,2.15054666 L3.78571429,6.00820648 Z"
  />
</svg>
