<svg xmlns="http://www.w3.org/2000/svg" width="18" height="18" viewBox="0 0 18 18" fill="currentColor">
  <path
    d="M11.2819745 5.28197449C10.9060085 5.65794047 10.9060085 6.22188944 11.2819745 6.59785542 12.0171538 7.33303477 12.2772954 8.05605449 12.2772954 9 12.2772954 9.93588462 11.851678 10.9172014 11.2819745 11.4869049 10.9060085 11.8628709 10.9060085 12.4268199 11.2819745 12.8027859 11.4271642 12.9479755 11.9176724 13.0649528 12.2998149 12.9592565 12.4124479 12.9281035 12.5156669 12.8776063 12.5978555 12.8027859 13.773371 11.732654 14.1311161 10.1597914 14.1312524 9 14.1312524 8.8299555 14.1286311 8.66015647 14.119665 8.4897429 14.0674781 7.49784946 13.8010171 6.48513613 12.5978554 5.28197449 12.2218894 4.9060085 11.6579405 4.9060085 11.2819745 5.28197449ZM3.78571429 6.00820648.714285714 6.00820648C.285714286 6.00820648 0 6.30901277 0 6.76022222L0 11.2723167C0 11.7235261.285714286 12.0243324.714285714 12.0243324L3.78571429 12.0243324 7.85714286 15.8819922C8.35714286 16.1827985 9 15.8819922 9 15.2803796L9 2.75215925C9 2.15054666 8.35714286 1.77453879 7.85714286 2.15054666L3.78571429 6.00820648Z"
  />
</svg>
