<svg width="18" height="18" viewBox="0 0 18 18" fill="none" xmlns="http://www.w3.org/2000/svg">
<path d="M1 13.5V15.75H3.25C3.25 14.5074 2.24264 13.5 1 13.5Z" fill="black"/>
<path d="M1 11V12.5C3.07107 12.5 4.75 14.1789 4.75 16.25H6.25C6.25 13.3505 3.89949 11 1 11Z" fill="black"/>
<path d="M1 8V9.5C4.72792 9.5 7.75 12.5221 7.75 16.25H9.25C9.25 11.6937 5.55635 8 1 8Z" fill="black"/>
<path fill-rule="evenodd" clip-rule="evenodd" d="M15 2H3C1.89543 2 1 2.89543 1 4V6.5H3V4H15V14H10.5V16H15C16.1046 16 17 15.1046 17 14V4C17 2.89543 16.1046 2 15 2Z" fill="black"/>
<path d="M4 5H14V13H9.5L4 7.5V5Z" fill="black"/>
</svg>
