<svg xmlns="http://www.w3.org/2000/svg" width="18" height="18" fill="none" viewBox="0 0 18 18">
  <path fill="currentColor" d="M15.154 2.004A3 3 0 0 1 18 5v8l-.004.154a3 3 0 0 1-2.842 2.842L15 16H7.5q-.002-.772-.15-1.5H15a1.5 1.5 0 0 0 1.5-1.5V5A1.5 1.5 0 0 0 15 3.5H3A1.5 1.5 0 0 0 1.5 5v3.65A7.5 7.5 0 0 0 0 8.5V5a3 3 0 0 1 3-3h12z"/>
  <mask id="a" width="8" height="8" x="0" y="8" maskUnits="userSpaceOnUse" style="mask-type:alpha">
    <rect width="8" height="8" y="8" fill="#fff" rx=".5"/>
  </mask>
  <g mask="url(#a)">
    <circle cy="16" r="3.25" stroke="currentColor" stroke-width="1.5"/>
    <circle cy="16" r="5.75" stroke="currentColor" stroke-width="1.5"/>
    <circle cy="16" r="1.5" fill="currentColor"/>
  </g>
</svg>
