<svg width="18" height="18" viewBox="0 0 18 18" fill="none" xmlns="http://www.w3.org/2000/svg">
<path d="M0.75 13.5V15.75H3C3 14.475 1.995 13.5 0.75 13.5Z" fill="black"/>
<path d="M0.75 10.5V12C2.82 12 4.5 13.65 4.5 15.75H6C6 12.8475 3.6525 10.5 0.75 10.5Z" fill="black"/>
<path d="M0.75 7.5V9C4.4775 9 7.5 12 7.5 15.75H9C9 11.19 5.3025 7.5 0.75 7.5Z" fill="black"/>
<path d="M15.75 2.25H2.25C1.425 2.25 0.75 2.925 0.75 3.75V6H2.25V3.75H15.75V14.25H10.5V15.75H15.75C16.575 15.75 17.25 15.075 17.25 14.25V3.75C17.25 2.925 16.575 2.25 15.75 2.25Z" fill="black"/>
</svg>
