<svg xmlns="http://www.w3.org/2000/svg" width="18" height="18" viewBox="0 0 18 18" fill="currentColor">
  <path
    d="M15.25 2h.017q.03 0 .06.004za.75.75 0 0 1 .599.298l-.069-.078a.75.75 0 0 1 .22.53v4.5a.75.75 0 1 1-1.5 0V4.56l-3.22 3.22a.75.75 0 0 1-1.06-1.06l3.218-3.22H10.75a.75.75 0 0 1-.743-.648L10 2.75a.75.75 0 0 1 .75-.75z"
    class="arrow-1"
  />
  <path
    d="M2.75 10a.75.75 0 0 1 .75.75v2.688l3.22-3.218a.75.75 0 0 1 1.06 1.06L4.56 14.5h2.69a.75.75 0 0 1 .743.648L8 15.25a.75.75 0 0 1-.75.75H2.722l-.046-.004.074.004a.75.75 0 0 1-.599-.298l.069.078a.75.75 0 0 1-.22-.53v-4.5a.75.75 0 0 1 .75-.75"
    class="arrow-2"
  />
</svg>
