<svg xmlns="http://www.w3.org/2000/svg" width="18" height="18" fill="currentColor" viewBox="0 0 18 18">
  <path d="M7.519 2.184c.356-1.579 2.605-1.579 2.962 0a1.52 1.52 0 0 0 2.292.949c1.368-.864 2.958.727 2.094 2.095-.56.886-.073 2.06.95 2.29 1.578.357 1.578 2.607 0 2.964a1.518 1.518 0 0 0-.95 2.29c.864 1.369-.726 2.96-2.094 2.095a1.52 1.52 0 0 0-2.292.95c-.357 1.578-2.606 1.578-2.962 0a1.518 1.518 0 0 0-2.291-.95c-1.368.864-2.959-.726-2.095-2.094.56-.887.074-2.06-.95-2.291-1.578-.357-1.578-2.607 0-2.963a1.518 1.518 0 0 0 .95-2.291c-.864-1.368.727-2.959 2.095-2.095.886.56 2.06.074 2.29-.95M9 5.1a3.9 3.9 0 1 0 0 7.8 3.9 3.9 0 0 0 0-7.8"/>
</svg>
