<svg width="18" height="18" viewBox="0 0 18 18" fill="none" xmlns="http://www.w3.org/2000/svg">
<path d="M13 2C15.2091 2 17 3.79093 17 6V8.64551C16.6831 8.55118 16.3475 8.5 16 8.5H15.5V6C15.5 4.61929 14.3807 3.5 13 3.5H4C2.61929 3.5 1.5 4.61929 1.5 6V12C1.5 13.3807 2.61929 14.5 4 14.5H6.5V15C6.5 15.3475 6.55118 15.6831 6.64551 16H4C1.79096 16 0.000162864 14.2089 0 12V6C0 3.79093 1.79086 2 4 2H13Z" fill="black"/>
<rect x="8" y="9.99963" width="10" height="7" rx="2" fill="black"/>
<path d="M3.75 5C3.33579 5 3 5.33579 3 5.75C3 5.75 3 8.83579 3 9.25C3 9.66421 3.33579 10 3.75 10C4.16421 10 4.5 9.66421 4.5 9.25V6.5H7.25C7.6297 6.5 7.94349 6.21785 7.99315 5.85177L8 5.75C8 5.33579 7.66421 5 7.25 5L3.75 5Z" fill="black"/>
<path d="M4.28033 5.21967C3.98744 4.92678 3.51256 4.92678 3.21967 5.21967C2.92678 5.51256 2.92678 5.98744 3.21967 6.28033L6.71967 9.78033C7.01256 10.0732 7.48744 10.0732 7.78033 9.78033C8.07322 9.48744 8.07322 9.01256 7.78033 8.71967L4.28033 5.21967Z" fill="black"/>
</svg>
