<svg width="18" height="18" viewBox="0 0 18 18" fill="none" xmlns="http://www.w3.org/2000/svg">
<path fill-rule="evenodd" clip-rule="evenodd" d="M13 2C15.2091 2 17 3.79081 17 5.99988V8.64494C16.6831 8.55064 16.3475 8.5 16 8.5H15.5V6C15.5 4.61929 14.3807 3.5 13 3.5H4C2.61929 3.5 1.5 4.61929 1.5 6V12C1.5 13.3807 2.61929 14.5 4 14.5H6.5V15C6.5 15.3473 6.55059 15.6828 6.64481 15.9996H4C1.79086 15.9996 0 14.2088 0 11.9997V5.99988C0 3.79081 1.79086 2 4 2H13Z" fill="black"/>
<rect x="8" y="9.99963" width="10" height="7" rx="2" fill="black"/>
<path d="M7.25 10C7.66421 10 8 9.66421 8 9.25C8 9.25 8 6.16421 8 5.75C8 5.33579 7.66421 5 7.25 5C6.83579 5 6.5 5.33579 6.5 5.75V8.5H3.75C3.3703 8.5 3.05651 8.78215 3.00685 9.14823L3 9.25C3 9.66421 3.33579 10 3.75 10L7.25 10Z" fill="black"/>
<path d="M6.71967 9.78033C7.01256 10.0732 7.48744 10.0732 7.78033 9.78033C8.07322 9.48744 8.07322 9.01256 7.78033 8.71967L4.28033 5.21967C3.98744 4.92678 3.51256 4.92678 3.21967 5.21967C2.92678 5.51256 2.92678 5.98744 3.21967 6.28033L6.71967 9.78033Z" fill="black"/>
</svg>
