<svg width="18" height="18" viewBox="0 0 18 18" fill="none" xmlns="http://www.w3.org/2000/svg">
<path fill-rule="evenodd" clip-rule="evenodd" d="M13 2C15.2091 2 17 3.79081 17 5.99988V8.64494C16.6831 8.55064 16.3475 8.5 16 8.5H15.5V6C15.5 4.61929 14.3807 3.5 13 3.5H4C2.61929 3.5 1.5 4.61929 1.5 6V12C1.5 13.3807 2.61929 14.5 4 14.5H6.5V15C6.5 15.3473 6.55059 15.6828 6.64481 15.9996H4C1.79086 15.9996 0 14.2088 0 11.9997V5.99988C0 3.79081 1.79086 2 4 2H13Z" fill="black"/>
<rect x="8" y="9.99963" width="10" height="7" rx="2" fill="black"/>
</svg>
