<svg width="18" height="18" viewBox="0 0 18 18" fill="none" xmlns="http://www.w3.org/2000/svg">
<path fill-rule="evenodd" clip-rule="evenodd" d="M9 17C4.58172 17 1 13.4183 1 9H2.5C2.5 12.5899 5.41015 15.5 9 15.5C12.5899 15.5 15.5 12.5899 15.5 9C15.5 5.41015 12.5899 2.5 9 2.5C6.95034 2.5 5.12227 3.44869 3.93092 4.93092L5.57322 6.57322C5.62011 6.62011 5.64645 6.6837 5.64645 6.75C5.64645 6.88807 5.53452 7 5.39645 7H1.25C1.11193 7 1 6.88807 1 6.75V2.60355C1 2.53725 1.02634 2.47366 1.07322 2.42678C1.17085 2.32915 1.32915 2.32915 1.42678 2.42678L2.86515 3.86515C4.33266 2.11371 6.53627 1 9 1C13.4183 1 17 4.58172 17 9C17 13.4183 13.4183 17 9 17Z" fill="black"/>
<path fill-rule="evenodd" clip-rule="evenodd" d="M11.6101 9.63866L8.27885 11.7095C7.88892 11.9594 7.3738 11.8403 7.12829 11.4434C7.04447 11.3079 7 11.151 7 10.9909V6.84918C7 6.38019 7.37354 6 7.83432 6C7.99163 6 8.14573 6.04527 8.27885 6.13058L11.6101 8.20145C12 8.45133 12.1171 8.97564 11.8716 9.37251C11.8051 9.48002 11.7157 9.57097 11.6101 9.63866Z" fill="black"/>
</svg>
