<svg width="18" height="18" viewBox="0 0 18 18" fill="none" xmlns="http://www.w3.org/2000/svg">
<path fill-rule="evenodd" clip-rule="evenodd" d="M1 9C1 11.2091 1.89543 13.2091 3.34315 14.6569L4.40381 13.5962C3.22754 12.4199 2.5 10.7949 2.5 9C2.5 5.41015 5.41015 2.5 9 2.5C11.0497 2.5 12.8777 3.44869 14.0691 4.93092L12.4268 6.57322C12.3799 6.62011 12.3536 6.6837 12.3536 6.75C12.3536 6.88807 12.4655 7 12.6036 7H16.75C16.8881 7 17 6.88807 17 6.75V2.60355C17 2.53725 16.9737 2.47366 16.9268 2.42678C16.8291 2.32915 16.6709 2.32915 16.5732 2.42678L15.1348 3.86515C13.6673 2.11371 11.4637 1 9 1C4.58172 1 1 4.58172 1 9Z" fill="black"/>
</svg>
